# MagicaVoxel @ Ephtracy

# group
o 

# material
mtllib chr_knight.mtl
usemtl palette

# normals
vn -1 0 0
vn 1 0 0
vn 0 0 1
vn 0 0 -1
vn 0 -1 0
vn 0 1 0

# texcoords
vt 0.0332031 0.5
vt 0.0410156 0.5
vt 0.0605469 0.5
vt 0.0644531 0.5
vt 0.0683594 0.5
vt 0.201172 0.5
vt 0.205078 0.5
vt 0.369141 0.5
vt 0.486328 0.5
vt 0.603516 0.5
vt 0.607422 0.5
vt 0.623047 0.5
vt 0.767578 0.5
vt 0.923828 0.5
vt 0.958984 0.5
vt 0.962891 0.5
vt 0.966797 0.5
vt 0.970703 0.5
vt 0.974609 0.5
vt 0.978516 0.5
vt 0.982422 0.5
vt 0.994141 0.5

# verts
v -1 0.7 -2.98023e-08
v -1 0.7 -0.1
v -1 0.9 -2.98023e-08
v -1 0.9 -0.1
v -1 1.1 -2.98023e-08
v -1 1.1 -0.1
v -0.9 0.6 -2.98023e-08
v -0.9 0.6 -0.1
v -0.9 0.7 -2.98023e-08
v -0.9 0.7 -0.1
v -0.9 1.1 -2.98023e-08
v -0.9 1.1 -0.1
v -0.9 1.2 -2.98023e-08
v -0.9 1.2 -0.1
v -0.8 0.5 -2.98023e-08
v -0.8 0.5 -0.1
v -0.8 0.6 -2.98023e-08
v -0.8 0.6 -0.1
v -0.8 0.9 -2.98023e-08
v -0.8 0.9 -0.1
v -0.8 1 -2.98023e-08
v -0.8 1 -0.1
v -0.7 0.6 -1
v -0.7 0.6 -1.1
v -0.7 0.7 -1
v -0.7 0.7 -1.1
v -0.7 0.9 0.1
v -0.7 0.9 -2.98023e-08
v -0.7 1 0.1
v -0.7 1 -2.98023e-08
v -0.6 0 -2.98023e-08
v -0.6 0 -0.1
v -0.6 0.8 -2.98023e-08
v -0.6 0.8 -0.1
v -0.6 0.9 -2.98023e-08
v -0.6 0.9 -0.1
v -0.6 1 -2.98023e-08
v -0.6 1 -0.1
v -0.6 1.1 -2.98023e-08
v -0.6 1.1 -0.1
v -0.5 1.4 -2.98023e-08
v -0.5 1.4 -0.1
v -0.5 1.5 -2.98023e-08
v -0.5 1.5 -0.1
v -0.4 0.4 -2.98023e-08
v -0.4 0.4 -0.1
v -0.4 0.5 -2.98023e-08
v -0.4 0.5 -0.1
v -0.4 0.8 0.1
v -0.4 0.8 -0.2
v -0.4 0.9 0.2
v -0.4 0.9 0.1
v -0.4 0.9 -2.98023e-08
v -0.4 0.9 -0.1
v -0.4 0.9 -0.2
v -0.4 0.9 -0.3
v -0.4 1 0.1
v -0.4 1 -2.98023e-08
v -0.4 1 -0.1
v -0.4 1 -0.2
v -0.4 1.1 0.1
v -0.4 1.1 -2.98023e-08
v -0.4 1.1 -0.1
v -0.4 1.1 -0.2
v -0.4 1.2 0.2
v -0.4 1.2 0.1
v -0.4 1.2 -2.98023e-08
v -0.4 1.2 -0.1
v -0.4 1.2 -0.2
v -0.4 1.2 -0.3
v -0.4 1.3 0.1
v -0.4 1.3 -2.98023e-08
v -0.4 1.3 -0.1
v -0.4 1.3 -0.2
v -0.4 1.4 -2.98023e-08
v -0.4 1.4 -0.1
v -0.3 0.3 0.2
v -0.3 0.3 0.1
v -0.3 0.3 -2.98023e-08
v -0.3 0.3 -0.1
v -0.3 0.3 -0.2
v -0.3 0.3 -0.3
v -0.3 0.4 0.2
v -0.3 0.4 0.1
v -0.3 0.4 -2.98023e-08
v -0.3 0.4 -0.1
v -0.3 0.4 -0.2
v -0.3 0.4 -0.3
v -0.3 0.5 0.1
v -0.3 0.5 -2.98023e-08
v -0.3 0.5 -0.1
v -0.3 0.6 -2.98023e-08
v -0.3 0.6 -0.1
v -0.3 0.6 -0.2
v -0.3 0.7 0.2
v -0.3 0.7 0.1
v -0.3 0.7 -2.98023e-08
v -0.3 0.7 -0.1
v -0.3 0.7 -0.2
v -0.3 0.7 -0.3
v -0.3 0.8 0.1
v -0.3 0.8 -2.98023e-08
v -0.3 0.8 -0.2
v -0.3 0.8 -0.3
v -0.3 0.9 0.2
v -0.3 0.9 0.1
v -0.3 0.9 -2.98023e-08
v -0.3 0.9 -0.1
v -0.3 0.9 -0.2
v -0.3 0.9 -0.3
v -0.3 0.9 -0.4
v -0.3 1 0.3
v -0.3 1 0.2
v -0.3 1 0.1
v -0.3 1 -2.98023e-08
v -0.3 1 -0.1
v -0.3 1 -0.2
v -0.3 1.1 0.1
v -0.3 1.1 -2.98023e-08
v -0.3 1.1 -0.1
v -0.3 1.1 -0.2
v -0.3 1.2 0.3
v -0.3 1.2 0.2
v -0.3 1.2 0.1
v -0.3 1.2 -2.98023e-08
v -0.3 1.2 -0.1
v -0.3 1.2 -0.2
v -0.3 1.2 -0.3
v -0.3 1.2 -0.4
v -0.3 1.3 0.2
v -0.3 1.3 0.1
v -0.3 1.3 -0.2
v -0.3 1.3 -0.3
v -0.2 0 -2.98023e-08
v -0.2 0 -0.1
v -0.2 0.2 -2.98023e-08
v -0.2 0.2 -0.1
v -0.2 0.3 -2.98023e-08
v -0.2 0.3 -0.1
v -0.2 0.4 0.1
v -0.2 0.4 -2.98023e-08
v -0.2 0.4 -0.1
v -0.2 0.4 -0.2
v -0.2 0.5 0.1
v -0.2 0.5 -2.98023e-08
v -0.2 0.5 -0.1
v -0.2 0.6 0.2
v -0.2 0.6 0.1
v -0.2 0.6 -0.1
v -0.2 0.6 -0.2
v -0.2 0.6 -0.3
v -0.2 0.7 0.2
v -0.2 0.7 0.1
v -0.2 0.7 -2.98023e-08
v -0.2 0.7 -0.2
v -0.2 0.7 -0.3
v -0.2 0.7 -0.4
v -0.2 0.8 0.1
v -0.2 0.8 -2.98023e-08
v -0.2 0.8 -0.3
v -0.2 0.8 -0.4
v -0.2 0.8 -0.5
v -0.2 0.9 -0.3
v -0.2 0.9 -0.4
v -0.2 1.1 -0.4
v -0.2 1.1 -0.5
v -0.2 1.3 0.1
v -0.2 1.3 -0.2
v -0.2 1.4 0.1
v -0.2 1.4 -0.2
v -0.1 0.6 -0.3
v -0.1 0.6 -0.4
v -0.1 0.7 -0.3
v -0.1 0.7 -0.4
v -0.1 0.9 0.2
v -0.1 0.9 0.1
v -0.1 1 0.2
v -0.1 1 0.1
v 0.1 0 -2.98023e-08
v 0.1 0 -0.1
v 0.1 0.2 -2.98023e-08
v 0.1 0.2 -0.1
v 0.1 0.3 -2.98023e-08
v 0.1 0.3 -0.1
v 0.1 0.5 -0.2
v 0.1 0.5 -0.3
v 0.1 0.5 -0.4
v 0.1 0.6 0.2
v 0.1 0.6 0.1
v 0.1 0.6 -0.2
v 0.1 0.6 -0.3
v 0.1 0.6 -0.4
v 0.1 0.7 0.2
v 0.1 0.7 0.1
v 0.1 0.7 -0.3
v 0.1 0.7 -0.4
v 0.1 0.8 -0.3
v 0.1 0.8 -0.4
v 0.1 0.8 -0.5
v 0.1 0.9 -0.3
v 0.1 0.9 -0.5
v 0.2 0.4 -0.3
v 0.2 0.4 -0.4
v 0.2 0.5 -0.3
v 0.2 0.5 -0.4
v 0.2 0.6 -0.3
v 0.2 0.6 -0.4
v 0.2 0.7 0.2
v 0.2 0.7 0.1
v 0.2 0.7 -0.3
v 0.2 0.7 -0.4
v 0.2 0.8 0.1
v 0.2 0.9 0.1
v 0.2 1 0.2
v 0.2 1 0.1
v 0.3 0.3 -0.3
v 0.3 0.3 -0.4
v 0.3 0.4 -0.3
v 0.3 0.4 -0.4
v 0.3 0.5 -2.98023e-08
v 0.3 0.5 -0.1
v 0.3 0.5 -0.3
v 0.3 0.5 -0.4
v 0.3 0.6 -2.98023e-08
v 0.3 0.6 -0.1
v 0.3 0.6 -0.3
v 0.3 0.6 -0.4
v 0.3 1.3 -2.98023e-08
v 0.3 1.3 -0.1
v 0.3 1.4 -2.98023e-08
v 0.3 1.4 -0.1
v 0.4 0.4 -2.98023e-08
v 0.4 0.4 -0.1
v 0.4 0.5 -2.98023e-08
v 0.4 0.5 -0.1
v 0.4 1.4 -2.98023e-08
v 0.4 1.4 -0.1
v 0.4 1.5 -2.98023e-08
v 0.4 1.5 -0.1
v -0.9 0.7 -2.98023e-08
v -0.9 0.7 -0.1
v -0.9 0.9 -2.98023e-08
v -0.9 0.9 -0.1
v -0.9 1.1 -2.98023e-08
v -0.9 1.1 -0.1
v -0.8 0.6 -2.98023e-08
v -0.8 0.6 -0.1
v -0.8 0.7 -2.98023e-08
v -0.8 0.7 -0.1
v -0.8 1.1 -2.98023e-08
v -0.8 1.1 -0.1
v -0.8 1.2 -2.98023e-08
v -0.8 1.2 -0.1
v -0.7 0.5 -2.98023e-08
v -0.7 0.5 -0.1
v -0.7 0.6 -2.98023e-08
v -0.7 0.6 -0.1
v -0.6 0.9 0.1
v -0.6 0.9 -2.98023e-08
v -0.6 1 0.1
v -0.6 1 -2.98023e-08
v -0.5 0 -2.98023e-08
v -0.5 0 -0.1
v -0.5 0.3 -2.98023e-08
v -0.5 0.3 -0.1
v -0.5 0.4 -2.98023e-08
v -0.5 0.4 -0.1
v -0.5 0.8 -2.98023e-08
v -0.5 0.8 -0.1
v -0.5 0.9 -2.98023e-08
v -0.5 0.9 -0.1
v -0.5 1 -2.98023e-08
v -0.5 1 -0.1
v -0.5 1.1 -2.98023e-08
v -0.5 1.1 -0.1
v -0.4 0.3 -2.98023e-08
v -0.4 0.3 -0.1
v -0.4 0.4 -2.98023e-08
v -0.4 0.4 -0.1
v -0.4 0.6 -1
v -0.4 0.6 -1.1
v -0.4 0.7 -1
v -0.4 0.7 -1.1
v -0.4 1.4 -2.98023e-08
v -0.4 1.4 -0.1
v -0.4 1.5 -2.98023e-08
v -0.4 1.5 -0.1
v -0.3 0.4 -2.98023e-08
v -0.3 0.4 -0.1
v -0.3 0.5 -2.98023e-08
v -0.3 0.5 -0.1
v -0.3 1.3 -2.98023e-08
v -0.3 1.3 -0.1
v -0.3 1.4 -2.98023e-08
v -0.3 1.4 -0.1
v -0.2 0.7 0.2
v -0.2 0.7 0.1
v -0.2 0.8 0.1
v -0.2 0.9 0.1
v -0.2 1 0.2
v -0.2 1 0.1
v -0.1 0 -2.98023e-08
v -0.1 0 -0.1
v -0.1 0.2 -2.98023e-08
v -0.1 0.2 -0.1
v -0.1 0.3 -2.98023e-08
v -0.1 0.3 -0.1
v -0.1 0.6 0.2
v -0.1 0.6 0.1
v -0.1 0.7 0.2
v -0.1 0.7 0.1
v -0.1 0.7 -0.3
v -0.1 0.7 -0.4
v -0.1 0.8 -0.3
v -0.1 0.8 -0.4
v -0.1 0.8 -0.5
v -0.1 0.9 -0.3
v -0.1 0.9 -0.5
v 0 0.9 0.2
v 0 0.9 0.1
v 0 1 0.2
v 0 1 0.1
v 0.1 0.6 -0.3
v 0.1 0.6 -0.4
v 0.1 0.7 -0.3
v 0.1 0.7 -0.4
v 0.2 0 -2.98023e-08
v 0.2 0 -0.1
v 0.2 0.2 -2.98023e-08
v 0.2 0.2 -0.1
v 0.2 0.3 -2.98023e-08
v 0.2 0.3 -0.1
v 0.2 0.4 0.1
v 0.2 0.4 -2.98023e-08
v 0.2 0.4 -0.1
v 0.2 0.4 -0.2
v 0.2 0.5 0.1
v 0.2 0.5 -2.98023e-08
v 0.2 0.5 -0.1
v 0.2 0.5 -0.2
v 0.2 0.5 -0.3
v 0.2 0.5 -0.4
v 0.2 0.6 0.2
v 0.2 0.6 0.1
v 0.2 0.6 -2.98023e-08
v 0.2 0.6 -0.1
v 0.2 0.6 -0.2
v 0.2 0.6 -0.3
v 0.2 0.6 -0.4
v 0.2 0.7 0.2
v 0.2 0.7 0.1
v 0.2 0.7 -2.98023e-08
v 0.2 0.7 -0.3
v 0.2 0.7 -0.4
v 0.2 0.8 0.1
v 0.2 0.8 -2.98023e-08
v 0.2 0.8 -0.3
v 0.2 0.8 -0.4
v 0.2 0.8 -0.5
v 0.2 0.9 -0.3
v 0.2 0.9 -0.4
v 0.2 1.1 -0.4
v 0.2 1.1 -0.5
v 0.2 1.3 0.1
v 0.2 1.3 -0.1
v 0.2 1.3 -0.2
v 0.2 1.4 0.1
v 0.2 1.4 -0.2
v 0.3 0.3 0.2
v 0.3 0.3 0.1
v 0.3 0.3 -2.98023e-08
v 0.3 0.3 -0.1
v 0.3 0.3 -0.2
v 0.3 0.3 -0.3
v 0.3 0.4 0.2
v 0.3 0.4 0.1
v 0.3 0.4 -2.98023e-08
v 0.3 0.4 -0.1
v 0.3 0.4 -0.2
v 0.3 0.4 -0.3
v 0.3 0.4 -0.4
v 0.3 0.5 0.1
v 0.3 0.5 -2.98023e-08
v 0.3 0.5 -0.3
v 0.3 0.5 -0.4
v 0.3 0.6 -2.98023e-08
v 0.3 0.6 -0.1
v 0.3 0.6 -0.3
v 0.3 0.6 -0.4
v 0.3 0.7 0.2
v 0.3 0.7 0.1
v 0.3 0.7 -2.98023e-08
v 0.3 0.7 -0.1
v 0.3 0.7 -0.2
v 0.3 0.7 -0.3
v 0.3 0.7 -0.4
v 0.3 0.8 0.1
v 0.3 0.8 -2.98023e-08
v 0.3 0.8 -0.1
v 0.3 0.8 -0.2
v 0.3 0.8 -0.3
v 0.3 0.9 0.2
v 0.3 0.9 0.1
v 0.3 0.9 -2.98023e-08
v 0.3 0.9 -0.1
v 0.3 0.9 -0.2
v 0.3 0.9 -0.3
v 0.3 0.9 -0.4
v 0.3 1 0.3
v 0.3 1 0.2
v 0.3 1 0.1
v 0.3 1 -2.98023e-08
v 0.3 1 -0.1
v 0.3 1 -0.2
v 0.3 1.1 0.3
v 0.3 1.1 0.2
v 0.3 1.1 0.1
v 0.3 1.1 -2.98023e-08
v 0.3 1.1 -0.1
v 0.3 1.1 -0.2
v 0.3 1.2 0.3
v 0.3 1.2 0.2
v 0.3 1.2 0.1
v 0.3 1.2 -2.98023e-08
v 0.3 1.2 -0.1
v 0.3 1.2 -0.2
v 0.3 1.2 -0.3
v 0.3 1.2 -0.4
v 0.3 1.3 0.2
v 0.3 1.3 0.1
v 0.3 1.3 -0.2
v 0.3 1.3 -0.3
v 0.4 0.3 -2.98023e-08
v 0.4 0.3 -0.1
v 0.4 0.3 -0.3
v 0.4 0.3 -0.4
v 0.4 0.4 -2.98023e-08
v 0.4 0.4 -0.1
v 0.4 0.4 -0.3
v 0.4 0.4 -0.4
v 0.4 0.5 -2.98023e-08
v 0.4 0.5 -0.1
v 0.4 0.5 -0.3
v 0.4 0.5 -0.4
v 0.4 0.6 -2.98023e-08
v 0.4 0.6 -0.1
v 0.4 0.6 -0.3
v 0.4 0.6 -0.4
v 0.4 0.7 -0.1
v 0.4 0.7 -0.2
v 0.4 0.8 0.1
v 0.4 0.8 -0.1
v 0.4 0.8 -0.2
v 0.4 0.9 0.2
v 0.4 0.9 0.1
v 0.4 0.9 -2.98023e-08
v 0.4 0.9 -0.1
v 0.4 0.9 -0.2
v 0.4 0.9 -0.3
v 0.4 1 0.1
v 0.4 1 -2.98023e-08
v 0.4 1 -0.1
v 0.4 1 -0.2
v 0.4 1.1 0.1
v 0.4 1.1 -2.98023e-08
v 0.4 1.1 -0.1
v 0.4 1.1 -0.2
v 0.4 1.2 0.2
v 0.4 1.2 0.1
v 0.4 1.2 -2.98023e-08
v 0.4 1.2 -0.1
v 0.4 1.2 -0.2
v 0.4 1.2 -0.3
v 0.4 1.3 0.1
v 0.4 1.3 -2.98023e-08
v 0.4 1.3 -0.1
v 0.4 1.3 -0.2
v 0.5 0.4 -2.98023e-08
v 0.5 0.4 -0.1
v 0.5 0.5 -2.98023e-08
v 0.5 0.5 -0.1
v 0.5 1.3 -2.98023e-08
v 0.5 1.3 -0.1
v 0.5 1.4 -2.98023e-08
v 0.5 1.4 -0.1
v 0.5 1.5 -2.98023e-08
v 0.5 1.5 -0.1
v -0.3 1 0.3
v -0.3 1.2 0.3
v 0 1 0.3
v 0 1.2 0.3
v 0.2 1.1 0.3
v 0.2 1.2 0.3
v 0.3 1 0.3
v 0.3 1.1 0.3
v 0.3 1.2 0.3
v -0.4 0.9 0.2
v -0.4 1.2 0.2
v -0.3 0.3 0.2
v -0.3 0.4 0.2
v -0.3 0.7 0.2
v -0.3 0.9 0.2
v -0.3 1 0.2
v -0.3 1.2 0.2
v -0.3 1.3 0.2
v -0.2 0.3 0.2
v -0.2 0.4 0.2
v -0.2 0.6 0.2
v -0.2 0.7 0.2
v -0.2 1 0.2
v -0.2 1.2 0.2
v -0.2 1.3 0.2
v -0.1 0.3 0.2
v -0.1 0.4 0.2
v -0.1 0.6 0.2
v -0.1 0.7 0.2
v -0.1 0.9 0.2
v -0.1 1 0.2
v 0 0.3 0.2
v 0 0.4 0.2
v 0 0.9 0.2
v 0 1 0.2
v 0 1.2 0.2
v 0.1 0.3 0.2
v 0.1 0.4 0.2
v 0.1 0.6 0.2
v 0.1 0.7 0.2
v 0.2 0.3 0.2
v 0.2 0.4 0.2
v 0.2 0.6 0.2
v 0.2 0.7 0.2
v 0.2 1 0.2
v 0.2 1.2 0.2
v 0.3 0.3 0.2
v 0.3 0.4 0.2
v 0.3 0.7 0.2
v 0.3 0.9 0.2
v 0.3 1 0.2
v 0.3 1.1 0.2
v 0.3 1.2 0.2
v 0.3 1.3 0.2
v 0.4 0.9 0.2
v 0.4 1.2 0.2
v -0.7 0.9 0.1
v -0.7 1 0.1
v -0.6 0.9 0.1
v -0.6 1 0.1
v -0.4 0.8 0.1
v -0.4 0.9 0.1
v -0.4 1.2 0.1
v -0.4 1.3 0.1
v -0.3 0.5 0.1
v -0.3 0.7 0.1
v -0.3 0.8 0.1
v -0.3 0.9 0.1
v -0.3 1.2 0.1
v -0.3 1.3 0.1
v -0.2 0.4 0.1
v -0.2 0.5 0.1
v -0.2 0.6 0.1
v -0.2 0.7 0.1
v -0.2 0.8 0.1
v -0.2 0.9 0.1
v -0.2 1 0.1
v -0.2 1.3 0.1
v -0.2 1.4 0.1
v -0.1 0.4 0.1
v -0.1 0.6 0.1
v -0.1 0.7 0.1
v -0.1 0.8 0.1
v -0.1 0.9 0.1
v -0.1 1 0.1
v -0.1 1.3 0.1
v -0.1 1.4 0.1
v 0 0.4 0.1
v 0 0.6 0.1
v 0 0.7 0.1
v 0 0.8 0.1
v 0 0.9 0.1
v 0 1 0.1
v 0.1 0.4 0.1
v 0.1 0.5 0.1
v 0.1 0.6 0.1
v 0.1 0.7 0.1
v 0.1 0.8 0.1
v 0.1 0.9 0.1
v 0.2 0.4 0.1
v 0.2 0.5 0.1
v 0.2 0.6 0.1
v 0.2 0.7 0.1
v 0.2 0.8 0.1
v 0.2 0.9 0.1
v 0.2 1 0.1
v 0.2 1.3 0.1
v 0.2 1.4 0.1
v 0.3 0.5 0.1
v 0.3 0.7 0.1
v 0.3 0.8 0.1
v 0.3 0.9 0.1
v 0.3 1.2 0.1
v 0.3 1.3 0.1
v 0.4 0.8 0.1
v 0.4 0.9 0.1
v 0.4 1.2 0.1
v 0.4 1.3 0.1
v -1 0.7 -2.98023e-08
v -1 0.9 -2.98023e-08
v -1 1.1 -2.98023e-08
v -0.9 0.6 -2.98023e-08
v -0.9 0.7 -2.98023e-08
v -0.9 0.9 -2.98023e-08
v -0.9 1.1 -2.98023e-08
v -0.9 1.2 -2.98023e-08
v -0.8 0.5 -2.98023e-08
v -0.8 0.6 -2.98023e-08
v -0.8 0.7 -2.98023e-08
v -0.8 0.9 -2.98023e-08
v -0.8 1 -2.98023e-08
v -0.8 1.1 -2.98023e-08
v -0.8 1.2 -2.98023e-08
v -0.7 0.5 -2.98023e-08
v -0.7 0.6 -2.98023e-08
v -0.7 0.9 -2.98023e-08
v -0.7 1 -2.98023e-08
v -0.6 0 -2.98023e-08
v -0.6 0.8 -2.98023e-08
v -0.6 0.9 -2.98023e-08
v -0.6 1 -2.98023e-08
v -0.6 1.1 -2.98023e-08
v -0.5 0 -2.98023e-08
v -0.5 0.3 -2.98023e-08
v -0.5 0.4 -2.98023e-08
v -0.5 0.8 -2.98023e-08
v -0.5 0.9 -2.98023e-08
v -0.5 1 -2.98023e-08
v -0.5 1.1 -2.98023e-08
v -0.5 1.4 -2.98023e-08
v -0.5 1.5 -2.98023e-08
v -0.4 0.3 -2.98023e-08
v -0.4 0.4 -2.98023e-08
v -0.4 0.5 -2.98023e-08
v -0.4 0.9 -2.98023e-08
v -0.4 1 -2.98023e-08
v -0.4 1.1 -2.98023e-08
v -0.4 1.2 -2.98023e-08
v -0.4 1.3 -2.98023e-08
v -0.4 1.4 -2.98023e-08
v -0.4 1.5 -2.98023e-08
v -0.3 0.4 -2.98023e-08
v -0.3 0.5 -2.98023e-08
v -0.3 0.7 -2.98023e-08
v -0.3 0.8 -2.98023e-08
v -0.3 0.9 -2.98023e-08
v -0.3 1 -2.98023e-08
v -0.3 1.1 -2.98023e-08
v -0.3 1.2 -2.98023e-08
v -0.3 1.3 -2.98023e-08
v -0.3 1.4 -2.98023e-08
v -0.2 0 -2.98023e-08
v -0.2 0.2 -2.98023e-08
v -0.2 0.3 -2.98023e-08
v -0.2 0.7 -2.98023e-08
v -0.2 0.8 -2.98023e-08
v -0.1 0 -2.98023e-08
v -0.1 0.2 -2.98023e-08
v -0.1 0.3 -2.98023e-08
v 0.1 0 -2.98023e-08
v 0.1 0.2 -2.98023e-08
v 0.1 0.3 -2.98023e-08
v 0.2 0 -2.98023e-08
v 0.2 0.2 -2.98023e-08
v 0.2 0.3 -2.98023e-08
v 0.2 0.7 -2.98023e-08
v 0.2 0.8 -2.98023e-08
v 0.3 0.3 -2.98023e-08
v 0.3 0.4 -2.98023e-08
v 0.3 0.5 -2.98023e-08
v 0.3 0.6 -2.98023e-08
v 0.3 0.7 -2.98023e-08
v 0.3 0.8 -2.98023e-08
v 0.3 0.9 -2.98023e-08
v 0.3 1 -2.98023e-08
v 0.3 1.1 -2.98023e-08
v 0.3 1.2 -2.98023e-08
v 0.3 1.3 -2.98023e-08
v 0.3 1.4 -2.98023e-08
v 0.4 0.3 -2.98023e-08
v 0.4 0.4 -2.98023e-08
v 0.4 0.5 -2.98023e-08
v 0.4 0.6 -2.98023e-08
v 0.4 0.9 -2.98023e-08
v 0.4 1 -2.98023e-08
v 0.4 1.1 -2.98023e-08
v 0.4 1.2 -2.98023e-08
v 0.4 1.3 -2.98023e-08
v 0.4 1.4 -2.98023e-08
v 0.4 1.5 -2.98023e-08
v 0.5 0.4 -2.98023e-08
v 0.5 0.5 -2.98023e-08
v 0.5 1.3 -2.98023e-08
v 0.5 1.4 -2.98023e-08
v 0.5 1.5 -2.98023e-08
v -0.4 1 -0.1
v -0.4 1.1 -0.1
v -0.3 1 -0.1
v -0.3 1.1 -0.1
v 0.3 0.7 -0.1
v 0.3 0.8 -0.1
v 0.3 1 -0.1
v 0.3 1.1 -0.1
v 0.4 0.7 -0.1
v 0.4 0.8 -0.1
v 0.4 1 -0.1
v 0.4 1.1 -0.1
v -0.4 0.9 -0.2
v -0.4 1 -0.2
v -0.4 1.1 -0.2
v -0.4 1.2 -0.2
v -0.3 0.9 -0.2
v -0.3 1 -0.2
v -0.3 1.1 -0.2
v -0.3 1.2 -0.2
v 0.3 0.9 -0.2
v 0.3 1 -0.2
v 0.3 1.1 -0.2
v 0.3 1.2 -0.2
v 0.4 0.9 -0.2
v 0.4 1 -0.2
v 0.4 1.1 -0.2
v 0.4 1.2 -0.2
v 0.2 0.4 -0.3
v 0.2 0.5 -0.3
v 0.3 0.3 -0.3
v 0.3 0.4 -0.3
v 0.3 0.5 -0.3
v 0.3 0.6 -0.3
v 0.4 0.3 -0.3
v 0.4 0.4 -0.3
v 0.4 0.5 -0.3
v 0.4 0.6 -0.3
v -0.7 0.6 -1
v -0.7 0.7 -1
v -0.4 0.6 -1
v -0.4 0.7 -1
v -0.4 0.9 0.1
v -0.4 1 0.1
v -0.4 1.1 0.1
v -0.4 1.2 0.1
v -0.3 0.7 0.1
v -0.3 0.8 0.1
v -0.3 0.9 0.1
v -0.3 1 0.1
v -0.3 1.1 0.1
v -0.3 1.2 0.1
v -0.2 0.7 0.1
v -0.2 0.8 0.1
v 0.2 0.7 0.1
v 0.2 0.8 0.1
v 0.3 0.7 0.1
v 0.3 0.8 0.1
v 0.3 0.9 0.1
v 0.3 1 0.1
v 0.3 1.1 0.1
v 0.3 1.2 0.1
v 0.4 0.9 0.1
v 0.4 1 0.1
v 0.4 1.1 0.1
v 0.4 1.2 0.1
v -0.4 1 -2.98023e-08
v -0.4 1.1 -2.98023e-08
v -0.3 1 -2.98023e-08
v -0.3 1.1 -2.98023e-08
v 0.2 0.5 -2.98023e-08
v 0.2 0.6 -2.98023e-08
v 0.3 0.5 -2.98023e-08
v 0.3 0.6 -2.98023e-08
v 0.3 1 -2.98023e-08
v 0.3 1.1 -2.98023e-08
v 0.4 1 -2.98023e-08
v 0.4 1.1 -2.98023e-08
v -1 0.7 -0.1
v -1 0.9 -0.1
v -1 1.1 -0.1
v -0.9 0.6 -0.1
v -0.9 0.7 -0.1
v -0.9 0.9 -0.1
v -0.9 1.1 -0.1
v -0.9 1.2 -0.1
v -0.8 0.5 -0.1
v -0.8 0.6 -0.1
v -0.8 0.7 -0.1
v -0.8 0.9 -0.1
v -0.8 1 -0.1
v -0.8 1.1 -0.1
v -0.8 1.2 -0.1
v -0.7 0.5 -0.1
v -0.7 0.6 -0.1
v -0.6 0 -0.1
v -0.6 0.8 -0.1
v -0.6 0.9 -0.1
v -0.6 1 -0.1
v -0.6 1.1 -0.1
v -0.5 0 -0.1
v -0.5 0.3 -0.1
v -0.5 0.4 -0.1
v -0.5 0.8 -0.1
v -0.5 0.9 -0.1
v -0.5 1 -0.1
v -0.5 1.1 -0.1
v -0.5 1.4 -0.1
v -0.5 1.5 -0.1
v -0.4 0.3 -0.1
v -0.4 0.4 -0.1
v -0.4 0.5 -0.1
v -0.4 0.9 -0.1
v -0.4 1 -0.1
v -0.4 1.1 -0.1
v -0.4 1.2 -0.1
v -0.4 1.3 -0.1
v -0.4 1.4 -0.1
v -0.4 1.5 -0.1
v -0.3 0.4 -0.1
v -0.3 0.5 -0.1
v -0.3 0.6 -0.1
v -0.3 0.9 -0.1
v -0.3 1 -0.1
v -0.3 1.1 -0.1
v -0.3 1.2 -0.1
v -0.3 1.3 -0.1
v -0.3 1.4 -0.1
v -0.2 0 -0.1
v -0.2 0.2 -0.1
v -0.2 0.3 -0.1
v -0.2 0.5 -0.1
v -0.2 0.6 -0.1
v -0.1 0 -0.1
v -0.1 0.2 -0.1
v -0.1 0.3 -0.1
v 0.1 0 -0.1
v 0.1 0.2 -0.1
v 0.1 0.3 -0.1
v 0.2 0 -0.1
v 0.2 0.2 -0.1
v 0.2 0.3 -0.1
v 0.3 0.3 -0.1
v 0.3 0.4 -0.1
v 0.3 0.5 -0.1
v 0.3 0.6 -0.1
v 0.3 0.9 -0.1
v 0.3 1 -0.1
v 0.3 1.1 -0.1
v 0.3 1.2 -0.1
v 0.3 1.3 -0.1
v 0.3 1.4 -0.1
v 0.4 0.3 -0.1
v 0.4 0.4 -0.1
v 0.4 0.5 -0.1
v 0.4 0.6 -0.1
v 0.4 0.9 -0.1
v 0.4 1 -0.1
v 0.4 1.1 -0.1
v 0.4 1.2 -0.1
v 0.4 1.3 -0.1
v 0.4 1.4 -0.1
v 0.4 1.5 -0.1
v 0.5 0.4 -0.1
v 0.5 0.5 -0.1
v 0.5 1.3 -0.1
v 0.5 1.4 -0.1
v 0.5 1.5 -0.1
v -0.4 0.8 -0.2
v -0.4 0.9 -0.2
v -0.4 1.2 -0.2
v -0.4 1.3 -0.2
v -0.3 0.6 -0.2
v -0.3 0.7 -0.2
v -0.3 0.8 -0.2
v -0.3 0.9 -0.2
v -0.3 1.2 -0.2
v -0.3 1.3 -0.2
v -0.2 0.4 -0.2
v -0.2 0.6 -0.2
v -0.2 0.7 -0.2
v -0.2 1.3 -0.2
v -0.2 1.4 -0.2
v -0.1 0.4 -0.2
v -0.1 0.6 -0.2
v -0.1 1.3 -0.2
v -0.1 1.4 -0.2
v 0 0.4 -0.2
v 0 0.6 -0.2
v 0.1 0.4 -0.2
v 0.1 0.5 -0.2
v 0.1 0.6 -0.2
v 0.2 0.4 -0.2
v 0.2 0.5 -0.2
v 0.2 1.3 -0.2
v 0.2 1.4 -0.2
v 0.3 0.7 -0.2
v 0.3 0.8 -0.2
v 0.3 0.9 -0.2
v 0.3 1.2 -0.2
v 0.3 1.3 -0.2
v 0.4 0.7 -0.2
v 0.4 0.8 -0.2
v 0.4 0.9 -0.2
v 0.4 1.2 -0.2
v 0.4 1.3 -0.2
v -0.4 0.9 -0.3
v -0.4 1.2 -0.3
v -0.3 0.3 -0.3
v -0.3 0.4 -0.3
v -0.3 0.7 -0.3
v -0.3 0.8 -0.3
v -0.3 0.9 -0.3
v -0.3 1.2 -0.3
v -0.3 1.3 -0.3
v -0.2 0.3 -0.3
v -0.2 0.4 -0.3
v -0.2 0.6 -0.3
v -0.2 0.7 -0.3
v -0.2 0.8 -0.3
v -0.2 0.9 -0.3
v -0.1 0.3 -0.3
v -0.1 0.4 -0.3
v -0.1 0.6 -0.3
v -0.1 0.7 -0.3
v -0.1 0.8 -0.3
v -0.1 0.9 -0.3
v 0 0.3 -0.3
v 0 0.4 -0.3
v 0.1 0.3 -0.3
v 0.1 0.4 -0.3
v 0.1 0.6 -0.3
v 0.1 0.7 -0.3
v 0.1 0.8 -0.3
v 0.1 0.9 -0.3
v 0.2 0.3 -0.3
v 0.2 0.4 -0.3
v 0.2 0.6 -0.3
v 0.2 0.7 -0.3
v 0.2 0.8 -0.3
v 0.2 0.9 -0.3
v 0.3 0.3 -0.3
v 0.3 0.4 -0.3
v 0.3 0.7 -0.3
v 0.3 0.8 -0.3
v 0.3 0.9 -0.3
v 0.3 1.2 -0.3
v 0.3 1.3 -0.3
v 0.4 0.9 -0.3
v 0.4 1.2 -0.3
v -0.3 0.9 -0.4
v -0.3 1.2 -0.4
v -0.2 0.7 -0.4
v -0.2 0.8 -0.4
v -0.2 0.9 -0.4
v -0.2 1.1 -0.4
v -0.1 0.6 -0.4
v -0.1 0.7 -0.4
v -0.1 0.8 -0.4
v 0.1 0.5 -0.4
v 0.1 0.6 -0.4
v 0.1 0.7 -0.4
v 0.1 0.8 -0.4
v 0.2 0.4 -0.4
v 0.2 0.5 -0.4
v 0.2 0.6 -0.4
v 0.2 0.7 -0.4
v 0.2 0.8 -0.4
v 0.2 0.9 -0.4
v 0.2 1.1 -0.4
v 0.3 0.3 -0.4
v 0.3 0.4 -0.4
v 0.3 0.5 -0.4
v 0.3 0.6 -0.4
v 0.3 0.7 -0.4
v 0.3 0.9 -0.4
v 0.3 1.2 -0.4
v 0.4 0.3 -0.4
v 0.4 0.4 -0.4
v 0.4 0.5 -0.4
v 0.4 0.6 -0.4
v -0.2 0.8 -0.5
v -0.2 1.1 -0.5
v -0.1 0.8 -0.5
v -0.1 0.9 -0.5
v 0.1 0.8 -0.5
v 0.1 0.9 -0.5
v 0.2 0.8 -0.5
v 0.2 1.1 -0.5
v -0.7 0.6 -1.1
v -0.7 0.7 -1.1
v -0.4 0.6 -1.1
v -0.4 0.7 -1.1
v -0.6 0 -2.98023e-08
v -0.5 0 -2.98023e-08
v -0.2 0 -2.98023e-08
v -0.1 0 -2.98023e-08
v 0.1 0 -2.98023e-08
v 0.2 0 -2.98023e-08
v -0.6 0 -0.1
v -0.5 0 -0.1
v -0.2 0 -0.1
v -0.1 0 -0.1
v 0.1 0 -0.1
v 0.2 0 -0.1
v -0.3 0.3 0.2
v -0.2 0.3 0.2
v -0.1 0.3 0.2
v 0 0.3 0.2
v 0.1 0.3 0.2
v 0.2 0.3 0.2
v 0.3 0.3 0.2
v -0.3 0.3 0.1
v -0.2 0.3 0.1
v 0.2 0.3 0.1
v 0.3 0.3 0.1
v -0.5 0.3 -2.98023e-08
v -0.4 0.3 -2.98023e-08
v -0.3 0.3 -2.98023e-08
v -0.2 0.3 -2.98023e-08
v -0.1 0.3 -2.98023e-08
v 0.1 0.3 -2.98023e-08
v 0.2 0.3 -2.98023e-08
v 0.3 0.3 -2.98023e-08
v 0.4 0.3 -2.98023e-08
v -0.5 0.3 -0.1
v -0.4 0.3 -0.1
v -0.3 0.3 -0.1
v -0.2 0.3 -0.1
v -0.1 0.3 -0.1
v 0.1 0.3 -0.1
v 0.2 0.3 -0.1
v 0.3 0.3 -0.1
v 0.4 0.3 -0.1
v -0.3 0.3 -0.2
v -0.2 0.3 -0.2
v 0.2 0.3 -0.2
v 0.3 0.3 -0.2
v -0.3 0.3 -0.3
v -0.2 0.3 -0.3
v -0.1 0.3 -0.3
v 0 0.3 -0.3
v 0.1 0.3 -0.3
v 0.2 0.3 -0.3
v 0.3 0.3 -0.3
v 0.4 0.3 -0.3
v 0.3 0.3 -0.4
v 0.4 0.3 -0.4
v -0.4 0.4 -2.98023e-08
v -0.3 0.4 -2.98023e-08
v 0.4 0.4 -2.98023e-08
v 0.5 0.4 -2.98023e-08
v -0.4 0.4 -0.1
v -0.3 0.4 -0.1
v 0.4 0.4 -0.1
v 0.5 0.4 -0.1
v 0.2 0.4 -0.3
v 0.3 0.4 -0.3
v 0.2 0.4 -0.4
v 0.3 0.4 -0.4
v -0.3 0.5 0.1
v -0.2 0.5 0.1
v 0.2 0.5 0.1
v 0.3 0.5 0.1
v -0.8 0.5 -2.98023e-08
v -0.7 0.5 -2.98023e-08
v -0.3 0.5 -2.98023e-08
v -0.2 0.5 -2.98023e-08
v 0.2 0.5 -2.98023e-08
v 0.3 0.5 -2.98023e-08
v 0.4 0.5 -2.98023e-08
v -0.8 0.5 -0.1
v -0.7 0.5 -0.1
v -0.3 0.5 -0.1
v -0.2 0.5 -0.1
v 0.3 0.5 -0.1
v 0.4 0.5 -0.1
v 0.1 0.5 -0.2
v 0.2 0.5 -0.2
v 0.1 0.5 -0.3
v 0.2 0.5 -0.3
v 0.3 0.5 -0.3
v 0.4 0.5 -0.3
v 0.1 0.5 -0.4
v 0.2 0.5 -0.4
v 0.3 0.5 -0.4
v 0.4 0.5 -0.4
v -0.2 0.6 0.2
v -0.1 0.6 0.2
v 0.1 0.6 0.2
v 0.2 0.6 0.2
v -0.2 0.6 0.1
v -0.1 0.6 0.1
v 0.1 0.6 0.1
v 0.2 0.6 0.1
v -0.9 0.6 -2.98023e-08
v -0.8 0.6 -2.98023e-08
v 0.2 0.6 -2.98023e-08
v 0.3 0.6 -2.98023e-08
v -0.9 0.6 -0.1
v -0.8 0.6 -0.1
v -0.3 0.6 -0.1
v -0.2 0.6 -0.1
v 0.2 0.6 -0.1
v 0.3 0.6 -0.1
v -0.3 0.6 -0.2
v -0.2 0.6 -0.2
v -0.1 0.6 -0.2
v 0 0.6 -0.2
v 0.1 0.6 -0.2
v 0.2 0.6 -0.2
v -0.2 0.6 -0.3
v -0.1 0.6 -0.3
v 0.1 0.6 -0.3
v 0.2 0.6 -0.3
v 0.3 0.6 -0.3
v -0.1 0.6 -0.4
v 0.1 0.6 -0.4
v 0.2 0.6 -0.4
v 0.3 0.6 -0.4
v -0.7 0.6 -1
v -0.4 0.6 -1
v -0.7 0.6 -1.1
v -0.4 0.6 -1.1
v -0.3 0.7 0.2
v -0.2 0.7 0.2
v 0.2 0.7 0.2
v 0.3 0.7 0.2
v -0.3 0.7 0.1
v -0.2 0.7 0.1
v 0.2 0.7 0.1
v 0.3 0.7 0.1
v -1 0.7 -2.98023e-08
v -0.9 0.7 -2.98023e-08
v -1 0.7 -0.1
v -0.9 0.7 -0.1
v 0.3 0.7 -0.1
v 0.4 0.7 -0.1
v -0.3 0.7 -0.2
v -0.2 0.7 -0.2
v 0.3 0.7 -0.2
v 0.4 0.7 -0.2
v -0.3 0.7 -0.3
v -0.2 0.7 -0.3
v -0.1 0.7 -0.3
v 0.1 0.7 -0.3
v 0.2 0.7 -0.3
v -0.2 0.7 -0.4
v -0.1 0.7 -0.4
v 0.1 0.7 -0.4
v 0.2 0.7 -0.4
v -0.4 0.8 0.1
v -0.3 0.8 0.1
v -0.2 0.8 0.1
v 0.2 0.8 0.1
v 0.3 0.8 0.1
v 0.4 0.8 0.1
v -0.3 0.8 -2.98023e-08
v -0.2 0.8 -2.98023e-08
v 0.2 0.8 -2.98023e-08
v 0.3 0.8 -2.98023e-08
v 0.3 0.8 -0.1
v 0.4 0.8 -0.1
v -0.4 0.8 -0.2
v -0.3 0.8 -0.2
v -0.2 0.8 -0.4
v -0.1 0.8 -0.4
v 0.1 0.8 -0.4
v 0.2 0.8 -0.4
v -0.2 0.8 -0.5
v -0.1 0.8 -0.5
v 0.1 0.8 -0.5
v 0.2 0.8 -0.5
v -0.4 0.9 0.2
v -0.3 0.9 0.2
v -0.1 0.9 0.2
v 0 0.9 0.2
v 0.3 0.9 0.2
v 0.4 0.9 0.2
v -0.7 0.9 0.1
v -0.6 0.9 0.1
v -0.4 0.9 0.1
v -0.3 0.9 0.1
v -0.1 0.9 0.1
v 0 0.9 0.1
v 0.3 0.9 0.1
v 0.4 0.9 0.1
v -0.8 0.9 -2.98023e-08
v -0.7 0.9 -2.98023e-08
v -0.6 0.9 -2.98023e-08
v -0.8 0.9 -0.1
v -0.6 0.9 -0.1
v -0.4 0.9 -0.2
v -0.3 0.9 -0.2
v 0.3 0.9 -0.2
v 0.4 0.9 -0.2
v -0.4 0.9 -0.3
v -0.3 0.9 -0.3
v -0.2 0.9 -0.3
v -0.1 0.9 -0.3
v 0.1 0.9 -0.3
v 0.2 0.9 -0.3
v 0.3 0.9 -0.3
v 0.4 0.9 -0.3
v -0.3 0.9 -0.4
v -0.2 0.9 -0.4
v 0.2 0.9 -0.4
v 0.3 0.9 -0.4
v -0.1 0.9 -0.5
v 0.1 0.9 -0.5
v -0.3 1 0.3
v 0 1 0.3
v 0.3 1 0.3
v -0.3 1 0.2
v -0.2 1 0.2
v -0.1 1 0.2
v 0 1 0.2
v 0.2 1 0.2
v 0.3 1 0.2
v -0.4 1 0.1
v -0.3 1 0.1
v -0.2 1 0.1
v -0.1 1 0.1
v 0 1 0.1
v 0.2 1 0.1
v 0.3 1 0.1
v 0.4 1 0.1
v -0.4 1 -2.98023e-08
v -0.3 1 -2.98023e-08
v 0.3 1 -2.98023e-08
v 0.4 1 -2.98023e-08
v -0.4 1 -0.1
v -0.3 1 -0.1
v 0.3 1 -0.1
v 0.4 1 -0.1
v -0.4 1 -0.2
v -0.3 1 -0.2
v 0.3 1 -0.2
v 0.4 1 -0.2
v -0.9 1.1 -2.98023e-08
v -0.8 1.1 -2.98023e-08
v -0.4 1.1 -2.98023e-08
v -0.3 1.1 -2.98023e-08
v 0.3 1.1 -2.98023e-08
v 0.4 1.1 -2.98023e-08
v -0.9 1.1 -0.1
v -0.8 1.1 -0.1
v -0.4 1.1 -0.1
v -0.3 1.1 -0.1
v 0.3 1.1 -0.1
v 0.4 1.1 -0.1
v -0.4 1.2 0.1
v -0.3 1.2 0.1
v 0.3 1.2 0.1
v 0.4 1.2 0.1
v -0.4 1.2 -2.98023e-08
v -0.3 1.2 -2.98023e-08
v 0.3 1.2 -2.98023e-08
v 0.4 1.2 -2.98023e-08
v -0.4 1.2 -0.1
v -0.3 1.2 -0.1
v 0.3 1.2 -0.1
v 0.4 1.2 -0.1
v -0.4 1.2 -0.2
v -0.3 1.2 -0.2
v 0.3 1.2 -0.2
v 0.4 1.2 -0.2
v 0.4 1.3 -2.98023e-08
v 0.5 1.3 -2.98023e-08
v 0.4 1.3 -0.1
v 0.5 1.3 -0.1
v -0.5 1.4 -2.98023e-08
v -0.4 1.4 -2.98023e-08
v -0.5 1.4 -0.1
v -0.4 1.4 -0.1
v -0.3 0.4 0.2
v -0.2 0.4 0.2
v -0.1 0.4 0.2
v 0 0.4 0.2
v 0.1 0.4 0.2
v 0.2 0.4 0.2
v 0.3 0.4 0.2
v -0.3 0.4 0.1
v -0.2 0.4 0.1
v -0.1 0.4 0.1
v 0 0.4 0.1
v 0.1 0.4 0.1
v 0.2 0.4 0.1
v 0.3 0.4 0.1
v -0.5 0.4 -2.98023e-08
v -0.4 0.4 -2.98023e-08
v -0.3 0.4 -2.98023e-08
v -0.2 0.4 -2.98023e-08
v 0.2 0.4 -2.98023e-08
v 0.3 0.4 -2.98023e-08
v 0.4 0.4 -2.98023e-08
v -0.5 0.4 -0.1
v -0.4 0.4 -0.1
v -0.3 0.4 -0.1
v -0.2 0.4 -0.1
v 0.2 0.4 -0.1
v 0.3 0.4 -0.1
v 0.4 0.4 -0.1
v -0.3 0.4 -0.2
v -0.2 0.4 -0.2
v -0.1 0.4 -0.2
v 0 0.4 -0.2
v 0.1 0.4 -0.2
v 0.2 0.4 -0.2
v 0.3 0.4 -0.2
v -0.3 0.4 -0.3
v -0.2 0.4 -0.3
v -0.1 0.4 -0.3
v 0 0.4 -0.3
v 0.1 0.4 -0.3
v 0.2 0.4 -0.3
v 0.3 0.4 -0.3
v 0.4 0.4 -0.3
v 0.3 0.4 -0.4
v 0.4 0.4 -0.4
v -0.4 0.5 -2.98023e-08
v -0.3 0.5 -2.98023e-08
v 0.4 0.5 -2.98023e-08
v 0.5 0.5 -2.98023e-08
v -0.4 0.5 -0.1
v -0.3 0.5 -0.1
v 0.4 0.5 -0.1
v 0.5 0.5 -0.1
v 0.2 0.5 -0.3
v 0.3 0.5 -0.3
v 0.2 0.5 -0.4
v 0.3 0.5 -0.4
v -0.8 0.6 -2.98023e-08
v -0.7 0.6 -2.98023e-08
v 0.3 0.6 -2.98023e-08
v 0.4 0.6 -2.98023e-08
v -0.8 0.6 -0.1
v -0.7 0.6 -0.1
v 0.3 0.6 -0.1
v 0.4 0.6 -0.1
v 0.1 0.6 -0.3
v 0.2 0.6 -0.3
v 0.3 0.6 -0.3
v 0.4 0.6 -0.3
v 0.1 0.6 -0.4
v 0.2 0.6 -0.4
v 0.3 0.6 -0.4
v 0.4 0.6 -0.4
v -0.2 0.7 0.2
v -0.1 0.7 0.2
v 0.1 0.7 0.2
v 0.2 0.7 0.2
v -0.3 0.7 0.1
v -0.2 0.7 0.1
v -0.1 0.7 0.1
v 0.1 0.7 0.1
v 0.2 0.7 0.1
v 0.3 0.7 0.1
v -0.9 0.7 -2.98023e-08
v -0.8 0.7 -2.98023e-08
v -0.3 0.7 -2.98023e-08
v -0.2 0.7 -2.98023e-08
v 0.2 0.7 -2.98023e-08
v 0.3 0.7 -2.98023e-08
v -0.9 0.7 -0.1
v -0.8 0.7 -0.1
v -0.1 0.7 -0.3
v 0.1 0.7 -0.3
v 0.2 0.7 -0.3
v 0.3 0.7 -0.3
v -0.1 0.7 -0.4
v 0.1 0.7 -0.4
v 0.2 0.7 -0.4
v 0.3 0.7 -0.4
v -0.7 0.7 -1
v -0.4 0.7 -1
v -0.7 0.7 -1.1
v -0.4 0.7 -1.1
v -0.4 0.9 0.1
v -0.3 0.9 0.1
v 0.3 0.9 0.1
v 0.4 0.9 0.1
v -0.4 0.9 -2.98023e-08
v -0.3 0.9 -2.98023e-08
v 0.3 0.9 -2.98023e-08
v 0.4 0.9 -2.98023e-08
v -0.4 0.9 -0.1
v -0.3 0.9 -0.1
v 0.3 0.9 -0.1
v 0.4 0.9 -0.1
v -0.4 0.9 -0.2
v -0.3 0.9 -0.2
v 0.3 0.9 -0.2
v 0.4 0.9 -0.2
v -0.7 1 0.1
v -0.6 1 0.1
v -0.8 1 -2.98023e-08
v -0.7 1 -2.98023e-08
v -0.6 1 -2.98023e-08
v -0.4 1 -2.98023e-08
v -0.3 1 -2.98023e-08
v 0.3 1 -2.98023e-08
v 0.4 1 -2.98023e-08
v -0.8 1 -0.1
v -0.6 1 -0.1
v -0.4 1 -0.1
v -0.3 1 -0.1
v 0.3 1 -0.1
v 0.4 1 -0.1
v -0.4 1.1 0.1
v -0.3 1.1 0.1
v 0.3 1.1 0.1
v 0.4 1.1 0.1
v -1 1.1 -2.98023e-08
v -0.9 1.1 -2.98023e-08
v -0.6 1.1 -2.98023e-08
v -0.5 1.1 -2.98023e-08
v -0.4 1.1 -2.98023e-08
v -0.3 1.1 -2.98023e-08
v 0.3 1.1 -2.98023e-08
v 0.4 1.1 -2.98023e-08
v -1 1.1 -0.1
v -0.9 1.1 -0.1
v -0.6 1.1 -0.1
v -0.5 1.1 -0.1
v -0.4 1.1 -0.1
v -0.3 1.1 -0.1
v 0.3 1.1 -0.1
v 0.4 1.1 -0.1
v -0.4 1.1 -0.2
v -0.3 1.1 -0.2
v 0.3 1.1 -0.2
v 0.4 1.1 -0.2
v -0.2 1.1 -0.4
v 0.2 1.1 -0.4
v -0.2 1.1 -0.5
v 0.2 1.1 -0.5
v -0.3 1.2 0.3
v 0 1.2 0.3
v 0.2 1.2 0.3
v 0.3 1.2 0.3
v -0.4 1.2 0.2
v -0.3 1.2 0.2
v -0.2 1.2 0.2
v 0 1.2 0.2
v 0.2 1.2 0.2
v 0.3 1.2 0.2
v 0.4 1.2 0.2
v -0.4 1.2 0.1
v -0.3 1.2 0.1
v 0.3 1.2 0.1
v 0.4 1.2 0.1
v -0.9 1.2 -2.98023e-08
v -0.8 1.2 -2.98023e-08
v -0.9 1.2 -0.1
v -0.8 1.2 -0.1
v -0.4 1.2 -0.2
v -0.3 1.2 -0.2
v 0.3 1.2 -0.2
v 0.4 1.2 -0.2
v -0.4 1.2 -0.3
v -0.3 1.2 -0.3
v 0.3 1.2 -0.3
v 0.4 1.2 -0.3
v -0.3 1.2 -0.4
v 0.3 1.2 -0.4
v -0.3 1.3 0.2
v -0.2 1.3 0.2
v 0.3 1.3 0.2
v -0.4 1.3 0.1
v -0.3 1.3 0.1
v -0.2 1.3 0.1
v -0.1 1.3 0.1
v 0.2 1.3 0.1
v 0.3 1.3 0.1
v 0.4 1.3 0.1
v -0.4 1.3 -2.98023e-08
v -0.3 1.3 -2.98023e-08
v 0.3 1.3 -2.98023e-08
v 0.4 1.3 -2.98023e-08
v -0.4 1.3 -0.1
v -0.3 1.3 -0.1
v 0.2 1.3 -0.1
v 0.3 1.3 -0.1
v 0.4 1.3 -0.1
v -0.4 1.3 -0.2
v -0.3 1.3 -0.2
v -0.2 1.3 -0.2
v -0.1 1.3 -0.2
v 0.2 1.3 -0.2
v 0.3 1.3 -0.2
v 0.4 1.3 -0.2
v -0.3 1.3 -0.3
v 0.3 1.3 -0.3
v -0.2 1.4 0.1
v -0.1 1.4 0.1
v 0.2 1.4 0.1
v -0.4 1.4 -2.98023e-08
v -0.3 1.4 -2.98023e-08
v 0.3 1.4 -2.98023e-08
v 0.4 1.4 -2.98023e-08
v -0.4 1.4 -0.1
v -0.3 1.4 -0.1
v 0.3 1.4 -0.1
v 0.4 1.4 -0.1
v -0.2 1.4 -0.2
v -0.1 1.4 -0.2
v 0.2 1.4 -0.2
v -0.5 1.5 -2.98023e-08
v -0.4 1.5 -2.98023e-08
v 0.4 1.5 -2.98023e-08
v 0.5 1.5 -2.98023e-08
v -0.5 1.5 -0.1
v -0.4 1.5 -0.1
v 0.4 1.5 -0.1
v 0.5 1.5 -0.1

# faces
f 3/18/1 2/18/1 1/18/1
f 4/18/1 2/18/1 3/18/1
f 5/16/1 4/16/1 3/16/1
f 6/16/1 4/16/1 5/16/1
f 9/18/1 8/18/1 7/18/1
f 10/18/1 8/18/1 9/18/1
f 13/16/1 12/16/1 11/16/1
f 14/16/1 12/16/1 13/16/1
f 17/18/1 16/18/1 15/18/1
f 18/18/1 16/18/1 17/18/1
f 21/14/1 20/14/1 19/14/1
f 22/14/1 20/14/1 21/14/1
f 25/14/1 24/14/1 23/14/1
f 26/14/1 24/14/1 25/14/1
f 29/14/1 28/14/1 27/14/1
f 30/14/1 28/14/1 29/14/1
f 33/8/1 32/8/1 31/8/1
f 34/8/1 32/8/1 33/8/1
f 35/6/1 34/6/1 33/6/1
f 36/6/1 34/6/1 35/6/1
f 39/6/1 38/6/1 37/6/1
f 40/6/1 38/6/1 39/6/1
f 43/19/1 42/19/1 41/19/1
f 44/19/1 42/19/1 43/19/1
f 47/12/1 46/12/1 45/12/1
f 48/12/1 46/12/1 47/12/1
f 52/20/1 50/20/1 49/20/1
f 53/20/1 50/20/1 52/20/1
f 54/20/1 50/20/1 53/20/1
f 55/20/1 50/20/1 54/20/1
f 57/20/1 52/20/1 51/20/1
f 58/20/1 54/20/1 53/20/1
f 59/20/1 54/20/1 58/20/1
f 60/20/1 56/20/1 55/20/1
f 61/20/1 57/20/1 51/20/1
f 61/20/1 58/20/1 57/20/1
f 62/20/1 58/20/1 61/20/1
f 63/20/1 60/20/1 59/20/1
f 64/20/1 56/20/1 60/20/1
f 64/20/1 60/20/1 63/20/1
f 65/20/1 61/20/1 51/20/1
f 66/20/1 61/20/1 65/20/1
f 67/20/1 63/20/1 62/20/1
f 68/20/1 63/20/1 67/20/1
f 69/20/1 56/20/1 64/20/1
f 70/20/1 56/20/1 69/20/1
f 71/20/1 68/20/1 67/20/1
f 71/20/1 69/20/1 68/20/1
f 71/20/1 67/20/1 66/20/1
f 72/20/1 69/20/1 71/20/1
f 73/20/1 69/20/1 72/20/1
f 74/20/1 69/20/1 73/20/1
f 75/20/1 73/20/1 72/20/1
f 76/20/1 73/20/1 75/20/1
f 83/13/1 78/13/1 77/13/1
f 84/10/1 79/10/1 78/10/1
f 84/13/1 78/13/1 83/13/1
f 85/13/1 80/13/1 79/13/1
f 85/10/1 79/10/1 84/10/1
f 86/10/1 81/10/1 80/10/1
f 86/13/1 80/13/1 85/13/1
f 87/13/1 82/13/1 81/13/1
f 87/10/1 81/10/1 86/10/1
f 88/13/1 82/13/1 87/13/1
f 92/5/1 90/5/1 89/5/1
f 92/1/1 91/1/1 90/1/1
f 93/1/1 91/1/1 92/1/1
f 96/5/1 92/5/1 89/5/1
f 97/13/1 93/13/1 92/13/1
f 97/5/1 92/5/1 96/5/1
f 98/5/1 94/5/1 93/5/1
f 98/13/1 93/13/1 97/13/1
f 99/5/1 94/5/1 98/5/1
f 101/5/1 96/5/1 95/5/1
f 102/5/1 100/5/1 99/5/1
f 102/5/1 99/5/1 98/5/1
f 102/5/1 98/5/1 97/5/1
f 103/5/1 100/5/1 102/5/1
f 104/5/1 100/5/1 103/5/1
f 105/5/1 101/5/1 95/5/1
f 106/5/1 101/5/1 105/5/1
f 109/19/1 104/19/1 103/19/1
f 110/19/1 104/19/1 109/19/1
f 114/7/1 107/7/1 106/7/1
f 115/7/1 107/7/1 114/7/1
f 116/5/1 109/5/1 108/5/1
f 117/5/1 109/5/1 116/5/1
f 119/19/1 116/19/1 115/19/1
f 120/19/1 116/19/1 119/19/1
f 122/18/1 113/18/1 112/18/1
f 123/18/1 113/18/1 122/18/1
f 124/19/1 119/19/1 118/19/1
f 125/19/1 119/19/1 124/19/1
f 126/20/1 121/20/1 120/20/1
f 127/20/1 121/20/1 126/20/1
f 128/20/1 111/20/1 110/20/1
f 129/20/1 111/20/1 128/20/1
f 130/20/1 124/20/1 123/20/1
f 131/20/1 124/20/1 130/20/1
f 132/20/1 128/20/1 127/20/1
f 133/20/1 128/20/1 132/20/1
f 136/8/1 135/8/1 134/8/1
f 137/8/1 135/8/1 136/8/1
f 138/1/1 137/1/1 136/1/1
f 139/1/1 137/1/1 138/1/1
f 144/10/1 141/10/1 140/10/1
f 145/13/1 142/13/1 141/13/1
f 145/10/1 141/10/1 144/10/1
f 146/10/1 143/10/1 142/10/1
f 146/13/1 142/13/1 145/13/1
f 149/10/1 143/10/1 146/10/1
f 150/10/1 143/10/1 149/10/1
f 152/5/1 148/5/1 147/5/1
f 153/5/1 148/5/1 152/5/1
f 155/5/1 151/5/1 150/5/1
f 156/5/1 151/5/1 155/5/1
f 158/3/1 154/3/1 153/3/1
f 159/3/1 154/3/1 158/3/1
f 160/5/1 157/5/1 156/5/1
f 161/5/1 157/5/1 160/5/1
f 163/20/1 162/20/1 161/20/1
f 163/20/1 161/20/1 160/20/1
f 164/20/1 162/20/1 163/20/1
f 165/20/1 162/20/1 164/20/1
f 166/20/1 162/20/1 165/20/1
f 169/20/1 168/20/1 167/20/1
f 170/20/1 168/20/1 169/20/1
f 173/5/1 172/5/1 171/5/1
f 174/5/1 172/5/1 173/5/1
f 177/5/1 176/5/1 175/5/1
f 178/5/1 176/5/1 177/5/1
f 181/8/1 180/8/1 179/8/1
f 182/8/1 180/8/1 181/8/1
f 183/1/1 182/1/1 181/1/1
f 184/1/1 182/1/1 183/1/1
f 190/9/1 186/9/1 185/9/1
f 191/5/1 187/5/1 186/5/1
f 191/9/1 186/9/1 190/9/1
f 192/5/1 187/5/1 191/5/1
f 193/5/1 189/5/1 188/5/1
f 194/5/1 189/5/1 193/5/1
f 197/5/1 196/5/1 195/5/1
f 198/5/1 196/5/1 197/5/1
f 200/20/1 198/20/1 197/20/1
f 200/20/1 199/20/1 198/20/1
f 201/20/1 199/20/1 200/20/1
f 204/5/1 203/5/1 202/5/1
f 205/5/1 203/5/1 204/5/1
f 210/5/1 207/5/1 206/5/1
f 211/5/1 207/5/1 210/5/1
f 212/5/1 209/5/1 208/5/1
f 213/5/1 212/5/1 208/5/1
f 214/5/1 213/5/1 208/5/1
f 215/5/1 213/5/1 214/5/1
f 218/5/1 217/5/1 216/5/1
f 219/5/1 217/5/1 218/5/1
f 224/1/1 221/1/1 220/1/1
f 225/1/1 221/1/1 224/1/1
f 226/5/1 223/5/1 222/5/1
f 227/5/1 223/5/1 226/5/1
f 230/19/1 229/19/1 228/19/1
f 231/19/1 229/19/1 230/19/1
f 234/1/1 233/1/1 232/1/1
f 235/1/1 233/1/1 234/1/1
f 238/18/1 237/18/1 236/18/1
f 239/18/1 237/18/1 238/18/1
f 240/18/2 241/18/2 242/18/2
f 242/18/2 241/18/2 243/18/2
f 242/16/2 243/16/2 244/16/2
f 244/16/2 243/16/2 245/16/2
f 246/18/2 247/18/2 248/18/2
f 248/18/2 247/18/2 249/18/2
f 250/16/2 251/16/2 252/16/2
f 252/16/2 251/16/2 253/16/2
f 254/18/2 255/18/2 256/18/2
f 256/18/2 255/18/2 257/18/2
f 258/14/2 259/14/2 260/14/2
f 260/14/2 259/14/2 261/14/2
f 262/8/2 263/8/2 264/8/2
f 264/8/2 263/8/2 265/8/2
f 266/8/2 267/8/2 268/8/2
f 268/8/2 267/8/2 269/8/2
f 268/6/2 269/6/2 270/6/2
f 270/6/2 269/6/2 271/6/2
f 270/21/2 271/21/2 272/21/2
f 272/21/2 271/21/2 273/21/2
f 272/6/2 273/6/2 274/6/2
f 274/6/2 273/6/2 275/6/2
f 276/1/2 277/1/2 278/1/2
f 278/1/2 277/1/2 279/1/2
f 280/14/2 281/14/2 282/14/2
f 282/14/2 281/14/2 283/14/2
f 284/19/2 285/19/2 286/19/2
f 286/19/2 285/19/2 287/19/2
f 288/12/2 289/12/2 290/12/2
f 290/12/2 289/12/2 291/12/2
f 292/20/2 293/20/2 294/20/2
f 294/20/2 293/20/2 295/20/2
f 296/5/2 297/5/2 298/5/2
f 296/5/2 298/5/2 299/5/2
f 296/5/2 299/5/2 300/5/2
f 300/5/2 299/5/2 301/5/2
f 302/8/2 303/8/2 304/8/2
f 304/8/2 303/8/2 305/8/2
f 304/1/2 305/1/2 306/1/2
f 306/1/2 305/1/2 307/1/2
f 308/5/2 309/5/2 310/5/2
f 310/5/2 309/5/2 311/5/2
f 312/5/2 313/5/2 314/5/2
f 314/5/2 313/5/2 315/5/2
f 314/20/2 315/20/2 317/20/2
f 315/20/2 316/20/2 317/20/2
f 317/20/2 316/20/2 318/20/2
f 319/5/2 320/5/2 321/5/2
f 321/5/2 320/5/2 322/5/2
f 323/5/2 324/5/2 325/5/2
f 325/5/2 324/5/2 326/5/2
f 327/8/2 328/8/2 329/8/2
f 329/8/2 328/8/2 330/8/2
f 329/1/2 330/1/2 331/1/2
f 331/1/2 330/1/2 332/1/2
f 333/13/2 334/13/2 337/13/2
f 334/10/2 335/10/2 338/10/2
f 337/13/2 334/13/2 338/13/2
f 335/13/2 336/13/2 339/13/2
f 338/10/2 335/10/2 339/10/2
f 339/13/2 336/13/2 340/13/2
f 338/12/2 339/12/2 345/12/2
f 339/12/2 340/12/2 345/12/2
f 345/12/2 340/12/2 346/12/2
f 340/9/2 341/9/2 347/9/2
f 346/12/2 340/12/2 347/12/2
f 341/5/2 342/5/2 348/5/2
f 347/9/2 341/9/2 348/9/2
f 348/5/2 342/5/2 349/5/2
f 343/5/2 344/5/2 350/5/2
f 350/5/2 344/5/2 351/5/2
f 351/1/2 352/1/2 355/1/2
f 355/1/2 352/1/2 356/1/2
f 353/5/2 354/5/2 357/5/2
f 357/5/2 354/5/2 358/5/2
f 357/20/2 358/20/2 360/20/2
f 358/20/2 359/20/2 360/20/2
f 360/20/2 359/20/2 361/20/2
f 361/20/2 359/20/2 362/20/2
f 362/20/2 359/20/2 363/20/2
f 364/19/2 365/19/2 367/19/2
f 365/19/2 366/19/2 367/19/2
f 367/19/2 366/19/2 368/19/2
f 369/10/2 370/10/2 375/10/2
f 370/13/2 371/13/2 376/13/2
f 375/10/2 370/10/2 376/10/2
f 376/13/2 371/13/2 377/13/2
f 372/13/2 373/13/2 378/13/2
f 373/10/2 374/10/2 379/10/2
f 378/13/2 373/13/2 379/13/2
f 379/10/2 374/10/2 380/10/2
f 380/5/2 381/5/2 384/5/2
f 384/5/2 381/5/2 385/5/2
f 382/5/2 383/5/2 386/5/2
f 382/5/2 386/5/2 391/5/2
f 386/13/2 387/13/2 392/13/2
f 391/5/2 386/5/2 392/5/2
f 388/5/2 389/5/2 393/5/2
f 392/13/2 387/13/2 393/13/2
f 387/5/2 388/5/2 393/5/2
f 393/5/2 389/5/2 394/5/2
f 394/5/2 389/5/2 395/5/2
f 395/5/2 389/5/2 396/5/2
f 390/5/2 391/5/2 397/5/2
f 392/4/2 393/4/2 398/4/2
f 398/4/2 393/4/2 399/4/2
f 394/5/2 395/5/2 400/5/2
f 400/5/2 395/5/2 401/5/2
f 390/5/2 397/5/2 402/5/2
f 402/5/2 397/5/2 403/5/2
f 400/19/2 401/19/2 406/19/2
f 406/19/2 401/19/2 407/19/2
f 403/7/2 404/7/2 411/7/2
f 411/7/2 404/7/2 412/7/2
f 405/5/2 406/5/2 413/5/2
f 413/5/2 406/5/2 414/5/2
f 409/17/2 410/17/2 415/17/2
f 415/17/2 410/17/2 416/17/2
f 412/19/2 413/19/2 418/19/2
f 418/19/2 413/19/2 419/19/2
f 415/15/2 416/15/2 421/15/2
f 421/15/2 416/15/2 422/15/2
f 417/19/2 418/19/2 423/19/2
f 423/19/2 418/19/2 424/19/2
f 419/19/2 420/19/2 425/19/2
f 425/19/2 420/19/2 426/19/2
f 407/20/2 408/20/2 427/20/2
f 427/20/2 408/20/2 428/20/2
f 422/19/2 423/19/2 429/19/2
f 429/19/2 423/19/2 430/19/2
f 426/20/2 427/20/2 431/20/2
f 431/20/2 427/20/2 432/20/2
f 433/1/2 434/1/2 437/1/2
f 437/1/2 434/1/2 438/1/2
f 435/5/2 436/5/2 439/5/2
f 439/5/2 436/5/2 440/5/2
f 441/1/2 442/1/2 445/1/2
f 445/1/2 442/1/2 446/1/2
f 443/5/2 444/5/2 447/5/2
f 447/5/2 444/5/2 448/5/2
f 449/5/2 450/5/2 452/5/2
f 452/5/2 450/5/2 453/5/2
f 451/19/2 452/19/2 455/19/2
f 452/19/2 453/19/2 455/19/2
f 455/19/2 453/19/2 456/19/2
f 456/19/2 453/19/2 457/19/2
f 457/19/2 453/19/2 458/19/2
f 454/19/2 455/19/2 460/19/2
f 456/19/2 457/19/2 461/19/2
f 461/19/2 457/19/2 462/19/2
f 458/19/2 459/19/2 463/19/2
f 454/19/2 460/19/2 464/19/2
f 460/19/2 461/19/2 464/19/2
f 464/19/2 461/19/2 465/19/2
f 462/19/2 463/19/2 466/19/2
f 463/19/2 459/19/2 467/19/2
f 466/19/2 463/19/2 467/19/2
f 454/19/2 464/19/2 468/19/2
f 468/19/2 464/19/2 469/19/2
f 465/19/2 466/19/2 470/19/2
f 470/19/2 466/19/2 471/19/2
f 467/19/2 459/19/2 472/19/2
f 472/19/2 459/19/2 473/19/2
f 470/19/2 471/19/2 474/19/2
f 471/19/2 472/19/2 474/19/2
f 469/19/2 470/19/2 474/19/2
f 474/19/2 472/19/2 475/19/2
f 475/19/2 472/19/2 476/19/2
f 476/19/2 472/19/2 477/19/2
f 478/1/2 479/1/2 480/1/2
f 480/1/2 479/1/2 481/1/2
f 482/19/2 483/19/2 484/19/2
f 484/19/2 483/19/2 485/19/2
f 484/18/2 485/18/2 486/18/2
f 486/18/2 485/18/2 487/18/2
f 490/18/3 489/18/3 488/18/3
f 491/18/3 489/18/3 490/18/3
f 492/17/3 491/17/3 490/17/3
f 493/17/3 491/17/3 492/17/3
f 494/17/3 492/17/3 490/17/3
f 495/15/3 493/15/3 492/15/3
f 495/17/3 492/17/3 494/17/3
f 496/15/3 493/15/3 495/15/3
f 502/20/3 498/20/3 497/20/3
f 503/20/3 498/20/3 502/20/3
f 504/20/3 498/20/3 503/20/3
f 506/13/3 500/13/3 499/13/3
f 507/13/3 500/13/3 506/13/3
f 509/5/3 502/5/3 501/5/3
f 509/5/3 503/5/3 502/5/3
f 510/5/3 503/5/3 509/5/3
f 511/20/3 505/20/3 504/20/3
f 512/20/3 505/20/3 511/20/3
f 513/10/3 507/10/3 506/10/3
f 514/10/3 507/10/3 513/10/3
f 515/5/3 509/5/3 508/5/3
f 516/5/3 509/5/3 515/5/3
f 519/13/3 514/13/3 513/13/3
f 520/13/3 514/13/3 519/13/3
f 521/5/3 518/5/3 517/5/3
f 522/5/3 518/5/3 521/5/3
f 523/19/3 512/19/3 511/19/3
f 524/10/3 520/10/3 519/10/3
f 525/10/3 520/10/3 524/10/3
f 528/13/3 525/13/3 524/13/3
f 529/13/3 525/13/3 528/13/3
f 530/5/3 527/5/3 526/5/3
f 531/5/3 527/5/3 530/5/3
f 533/19/3 512/19/3 523/19/3
f 534/10/3 529/10/3 528/10/3
f 535/10/3 529/10/3 534/10/3
f 536/5/3 532/5/3 531/5/3
f 537/5/3 532/5/3 536/5/3
f 538/5/3 532/5/3 537/5/3
f 540/19/3 512/19/3 533/19/3
f 541/19/3 512/19/3 540/19/3
f 542/19/3 539/19/3 538/19/3
f 542/19/3 540/19/3 539/19/3
f 542/19/3 538/19/3 537/19/3
f 543/19/3 540/19/3 542/19/3
f 546/14/3 545/14/3 544/14/3
f 547/14/3 545/14/3 546/14/3
f 554/20/3 549/20/3 548/20/3
f 555/20/3 549/20/3 554/20/3
f 556/20/3 551/20/3 550/20/3
f 557/20/3 551/20/3 556/20/3
f 559/5/3 553/5/3 552/5/3
f 560/5/3 553/5/3 559/5/3
f 561/5/3 553/5/3 560/5/3
f 567/10/3 559/10/3 558/10/3
f 567/10/3 560/10/3 559/10/3
f 568/10/3 560/10/3 567/10/3
f 569/3/3 562/3/3 561/3/3
f 570/22/3 563/22/3 562/22/3
f 570/3/3 562/3/3 569/3/3
f 571/5/3 564/5/3 563/5/3
f 571/22/3 563/22/3 570/22/3
f 572/5/3 564/5/3 571/5/3
f 573/20/3 566/20/3 565/20/3
f 574/20/3 566/20/3 573/20/3
f 575/13/3 568/13/3 567/13/3
f 576/11/3 569/11/3 568/11/3
f 576/13/3 568/13/3 575/13/3
f 577/3/3 570/3/3 569/3/3
f 577/11/3 569/11/3 576/11/3
f 578/1/3 571/1/3 570/1/3
f 578/3/3 570/3/3 577/3/3
f 579/1/3 571/1/3 578/1/3
f 581/10/3 576/10/3 575/10/3
f 581/10/3 577/10/3 576/10/3
f 582/10/3 577/10/3 581/10/3
f 583/10/3 577/10/3 582/10/3
f 584/1/3 579/1/3 578/1/3
f 584/10/3 577/10/3 583/10/3
f 584/1/3 578/1/3 577/1/3
f 585/1/3 579/1/3 584/1/3
f 586/5/3 580/5/3 579/5/3
f 586/1/3 579/1/3 585/1/3
f 587/13/3 582/13/3 581/13/3
f 588/10/3 583/10/3 582/10/3
f 588/13/3 582/13/3 587/13/3
f 589/10/3 583/10/3 588/10/3
f 590/1/3 585/1/3 584/1/3
f 591/22/3 586/22/3 585/22/3
f 591/1/3 585/1/3 590/1/3
f 592/5/3 580/5/3 586/5/3
f 592/22/3 586/22/3 591/22/3
f 593/5/3 580/5/3 592/5/3
f 594/19/3 574/19/3 573/19/3
f 595/19/3 574/19/3 594/19/3
f 596/5/3 589/5/3 588/5/3
f 596/5/3 590/5/3 589/5/3
f 597/5/3 590/5/3 596/5/3
f 602/19/3 599/19/3 598/19/3
f 603/19/3 599/19/3 602/19/3
f 604/19/3 601/19/3 600/19/3
f 605/19/3 601/19/3 604/19/3
f 610/18/3 607/18/3 606/18/3
f 611/16/3 608/16/3 607/16/3
f 611/18/3 607/18/3 610/18/3
f 612/16/3 608/16/3 611/16/3
f 615/18/3 610/18/3 609/18/3
f 616/18/3 610/18/3 615/18/3
f 619/16/3 613/16/3 612/16/3
f 620/16/3 613/16/3 619/16/3
f 621/18/3 615/18/3 614/18/3
f 622/18/3 615/18/3 621/18/3
f 623/14/3 618/14/3 617/14/3
f 624/14/3 618/14/3 623/14/3
f 630/8/3 626/8/3 625/8/3
f 631/8/3 626/8/3 630/8/3
f 632/8/3 626/8/3 631/8/3
f 633/6/3 627/6/3 626/6/3
f 633/8/3 626/8/3 632/8/3
f 634/21/3 628/21/3 627/21/3
f 634/6/3 627/6/3 633/6/3
f 635/6/3 629/6/3 628/6/3
f 635/21/3 628/21/3 634/21/3
f 636/6/3 629/6/3 635/6/3
f 639/1/3 632/1/3 631/1/3
f 640/1/3 632/1/3 639/1/3
f 647/19/3 638/19/3 637/19/3
f 648/19/3 638/19/3 647/19/3
f 649/12/3 641/12/3 640/12/3
f 650/12/3 641/12/3 649/12/3
f 653/20/3 643/20/3 642/20/3
f 654/20/3 643/20/3 653/20/3
f 655/20/3 645/20/3 644/20/3
f 656/20/3 645/20/3 655/20/3
f 657/20/3 647/20/3 646/20/3
f 658/20/3 647/20/3 657/20/3
f 662/5/3 652/5/3 651/5/3
f 663/5/3 652/5/3 662/5/3
f 664/8/3 660/8/3 659/8/3
f 665/1/3 661/1/3 660/1/3
f 665/8/3 660/8/3 664/8/3
f 666/1/3 661/1/3 665/1/3
f 670/8/3 668/8/3 667/8/3
f 671/1/3 669/1/3 668/1/3
f 671/8/3 668/8/3 670/8/3
f 672/1/3 669/1/3 671/1/3
f 679/4/3 674/4/3 673/4/3
f 680/4/3 674/4/3 679/4/3
f 687/1/3 676/1/3 675/1/3
f 688/1/3 676/1/3 687/1/3
f 689/1/3 678/1/3 677/1/3
f 690/1/3 678/1/3 689/1/3
f 691/19/3 682/19/3 681/19/3
f 692/19/3 682/19/3 691/19/3
f 693/19/3 684/19/3 683/19/3
f 694/19/3 684/19/3 693/19/3
f 695/19/3 686/19/3 685/19/3
f 696/19/3 686/19/3 695/19/3
f 698/1/3 689/1/3 688/1/3
f 699/1/3 689/1/3 698/1/3
f 700/19/3 696/19/3 695/19/3
f 701/18/3 697/18/3 696/18/3
f 701/19/3 696/19/3 700/19/3
f 702/18/3 697/18/3 701/18/3
f 705/20/3 704/20/3 703/20/3
f 706/20/3 704/20/3 705/20/3
f 711/5/3 708/5/3 707/5/3
f 712/5/3 708/5/3 711/5/3
f 713/19/3 710/19/3 709/19/3
f 714/19/3 710/19/3 713/19/3
f 719/20/3 716/20/3 715/20/3
f 720/20/3 716/20/3 719/20/3
f 721/20/3 718/20/3 717/20/3
f 722/20/3 718/20/3 721/20/3
f 727/19/3 724/19/3 723/19/3
f 728/19/3 724/19/3 727/19/3
f 729/19/3 726/19/3 725/19/3
f 730/19/3 726/19/3 729/19/3
f 734/5/3 732/5/3 731/5/3
f 735/5/3 732/5/3 734/5/3
f 737/5/3 734/5/3 733/5/3
f 738/5/3 734/5/3 737/5/3
f 739/5/3 736/5/3 735/5/3
f 740/5/3 736/5/3 739/5/3
f 743/14/3 742/14/3 741/14/3
f 744/14/3 742/14/3 743/14/3
f 745/20/4 746/20/4 751/20/4
f 751/20/4 746/20/4 752/20/4
f 747/20/4 748/20/4 753/20/4
f 753/20/4 748/20/4 754/20/4
f 749/5/4 750/5/4 755/5/4
f 755/5/4 750/5/4 756/5/4
f 757/5/4 758/5/4 759/5/4
f 759/5/4 758/5/4 760/5/4
f 761/19/4 762/19/4 765/19/4
f 765/19/4 762/19/4 766/19/4
f 763/19/4 764/19/4 767/19/4
f 767/19/4 764/19/4 768/19/4
f 769/20/4 770/20/4 771/20/4
f 771/20/4 770/20/4 772/20/4
f 773/5/4 774/5/4 775/5/4
f 775/5/4 774/5/4 776/5/4
f 777/19/4 778/19/4 779/19/4
f 779/19/4 778/19/4 780/19/4
f 781/18/4 782/18/4 785/18/4
f 782/16/4 783/16/4 786/16/4
f 785/18/4 782/18/4 786/18/4
f 786/16/4 783/16/4 787/16/4
f 784/18/4 785/18/4 790/18/4
f 790/18/4 785/18/4 791/18/4
f 787/16/4 788/16/4 794/16/4
f 794/16/4 788/16/4 795/16/4
f 789/18/4 790/18/4 796/18/4
f 796/18/4 790/18/4 797/18/4
f 792/14/4 793/14/4 800/14/4
f 800/14/4 793/14/4 801/14/4
f 798/8/4 799/8/4 803/8/4
f 803/8/4 799/8/4 804/8/4
f 804/8/4 799/8/4 805/8/4
f 799/6/4 800/6/4 806/6/4
f 805/8/4 799/8/4 806/8/4
f 800/21/4 801/21/4 807/21/4
f 806/6/4 800/6/4 807/6/4
f 801/6/4 802/6/4 808/6/4
f 807/21/4 801/21/4 808/21/4
f 808/6/4 802/6/4 809/6/4
f 804/1/4 805/1/4 812/1/4
f 812/1/4 805/1/4 813/1/4
f 810/19/4 811/19/4 820/19/4
f 820/19/4 811/19/4 821/19/4
f 813/12/4 814/12/4 822/12/4
f 822/12/4 814/12/4 823/12/4
f 815/20/4 816/20/4 825/20/4
f 825/20/4 816/20/4 826/20/4
f 817/20/4 818/20/4 827/20/4
f 827/20/4 818/20/4 828/20/4
f 819/20/4 820/20/4 829/20/4
f 829/20/4 820/20/4 830/20/4
f 823/1/4 824/1/4 834/1/4
f 834/1/4 824/1/4 835/1/4
f 831/8/4 832/8/4 836/8/4
f 832/1/4 833/1/4 837/1/4
f 836/8/4 832/8/4 837/8/4
f 837/1/4 833/1/4 838/1/4
f 839/8/4 840/8/4 842/8/4
f 840/1/4 841/1/4 843/1/4
f 842/8/4 840/8/4 843/8/4
f 843/1/4 841/1/4 844/1/4
f 845/1/4 846/1/4 855/1/4
f 855/1/4 846/1/4 856/1/4
f 847/1/4 848/1/4 857/1/4
f 857/1/4 848/1/4 858/1/4
f 849/19/4 850/19/4 859/19/4
f 859/19/4 850/19/4 860/19/4
f 851/19/4 852/19/4 861/19/4
f 861/19/4 852/19/4 862/19/4
f 853/19/4 854/19/4 863/19/4
f 863/19/4 854/19/4 864/19/4
f 856/1/4 857/1/4 866/1/4
f 866/1/4 857/1/4 867/1/4
f 863/19/4 864/19/4 868/19/4
f 864/18/4 865/18/4 869/18/4
f 868/19/4 864/19/4 869/19/4
f 869/18/4 865/18/4 870/18/4
f 871/20/4 872/20/4 877/20/4
f 877/20/4 872/20/4 878/20/4
f 873/20/4 874/20/4 879/20/4
f 879/20/4 874/20/4 880/20/4
f 875/5/4 876/5/4 882/5/4
f 882/5/4 876/5/4 883/5/4
f 881/10/4 882/10/4 886/10/4
f 886/10/4 882/10/4 887/10/4
f 884/20/4 885/20/4 888/20/4
f 888/20/4 885/20/4 889/20/4
f 886/13/4 887/13/4 890/13/4
f 890/13/4 887/13/4 891/13/4
f 890/10/4 891/10/4 892/10/4
f 892/10/4 891/10/4 893/10/4
f 893/10/4 891/10/4 894/10/4
f 892/13/4 893/13/4 895/13/4
f 895/13/4 893/13/4 896/13/4
f 888/19/4 889/19/4 897/19/4
f 897/19/4 889/19/4 898/19/4
f 899/5/4 900/5/4 904/5/4
f 900/19/4 901/19/4 905/19/4
f 904/5/4 900/5/4 905/5/4
f 905/19/4 901/19/4 906/19/4
f 902/19/4 903/19/4 907/19/4
f 907/19/4 903/19/4 908/19/4
f 909/20/4 910/20/4 915/20/4
f 915/20/4 910/20/4 916/20/4
f 911/13/4 912/13/4 918/13/4
f 918/13/4 912/13/4 919/13/4
f 913/5/4 914/5/4 921/5/4
f 914/19/4 915/19/4 922/19/4
f 921/5/4 914/5/4 922/5/4
f 922/19/4 915/19/4 923/19/4
f 918/10/4 919/10/4 924/10/4
f 924/10/4 919/10/4 925/10/4
f 920/5/4 921/5/4 926/5/4
f 926/5/4 921/5/4 927/5/4
f 924/13/4 925/13/4 930/13/4
f 930/13/4 925/13/4 931/13/4
f 930/10/4 931/10/4 932/10/4
f 932/10/4 931/10/4 933/10/4
f 927/5/4 928/5/4 935/5/4
f 928/20/4 929/20/4 936/20/4
f 935/5/4 928/5/4 936/5/4
f 936/20/4 929/20/4 937/20/4
f 932/13/4 933/13/4 938/13/4
f 938/13/4 933/13/4 939/13/4
f 934/4/4 935/4/4 940/4/4
f 940/4/4 935/4/4 941/4/4
f 938/10/4 939/10/4 944/10/4
f 944/10/4 939/10/4 945/10/4
f 941/5/4 942/5/4 946/5/4
f 942/19/4 943/19/4 947/19/4
f 946/5/4 942/5/4 947/5/4
f 947/19/4 943/19/4 948/19/4
f 916/20/4 917/20/4 949/20/4
f 949/20/4 917/20/4 950/20/4
f 948/19/4 949/19/4 951/19/4
f 951/19/4 949/19/4 952/19/4
f 953/20/4 954/20/4 957/20/4
f 957/20/4 954/20/4 958/20/4
f 955/5/4 956/5/4 960/5/4
f 960/5/4 956/5/4 961/5/4
f 959/5/4 960/5/4 963/5/4
f 963/5/4 960/5/4 964/5/4
f 962/5/4 963/5/4 967/5/4
f 967/5/4 963/5/4 968/5/4
f 964/5/4 965/5/4 969/5/4
f 969/5/4 965/5/4 970/5/4
f 958/20/4 954/20/4 972/20/4
f 966/5/4 967/5/4 974/5/4
f 974/5/4 967/5/4 975/5/4
f 968/5/4 969/5/4 976/5/4
f 976/5/4 969/5/4 977/5/4
f 971/20/4 972/20/4 978/20/4
f 972/20/4 954/20/4 979/20/4
f 978/20/4 972/20/4 979/20/4
f 973/5/4 974/5/4 980/5/4
f 980/5/4 974/5/4 981/5/4
f 975/5/4 976/5/4 982/5/4
f 982/5/4 976/5/4 983/5/4
f 984/20/4 985/20/4 986/20/4
f 986/20/4 985/20/4 987/20/4
f 987/20/4 985/20/4 989/20/4
f 988/20/4 989/20/4 990/20/4
f 989/20/4 985/20/4 991/20/4
f 990/20/4 989/20/4 991/20/4
f 992/14/4 993/14/4 994/14/4
f 994/14/4 993/14/4 995/14/4
f 1002/8/5 997/8/5 996/8/5
f 1003/8/5 997/8/5 1002/8/5
f 1004/8/5 999/8/5 998/8/5
f 1005/8/5 999/8/5 1004/8/5
f 1006/8/5 1001/8/5 1000/8/5
f 1007/8/5 1001/8/5 1006/8/5
f 1015/13/5 1009/13/5 1008/13/5
f 1016/10/5 1010/10/5 1009/10/5
f 1016/13/5 1009/13/5 1015/13/5
f 1017/10/5 1014/10/5 1013/10/5
f 1017/13/5 1013/13/5 1012/13/5
f 1018/10/5 1014/10/5 1017/10/5
f 1021/10/5 1016/10/5 1015/10/5
f 1022/10/5 1010/10/5 1016/10/5
f 1022/10/5 1016/10/5 1021/10/5
f 1023/13/5 1011/13/5 1010/13/5
f 1023/10/5 1010/10/5 1022/10/5
f 1024/10/5 1012/10/5 1011/10/5
f 1024/13/5 1017/13/5 1012/13/5
f 1024/13/5 1018/13/5 1017/13/5
f 1025/13/5 1018/13/5 1024/13/5
f 1026/13/5 1018/13/5 1025/13/5
f 1028/1/5 1020/1/5 1019/1/5
f 1029/1/5 1020/1/5 1028/1/5
f 1030/13/5 1022/13/5 1021/13/5
f 1031/13/5 1022/13/5 1030/13/5
f 1032/13/5 1011/13/5 1023/13/5
f 1033/10/5 1024/10/5 1011/10/5
f 1034/10/5 1026/10/5 1025/10/5
f 1035/1/5 1027/1/5 1026/1/5
f 1035/10/5 1026/10/5 1034/10/5
f 1036/1/5 1027/1/5 1035/1/5
f 1037/10/5 1031/10/5 1030/10/5
f 1037/10/5 1032/10/5 1031/10/5
f 1038/10/5 1032/10/5 1037/10/5
f 1039/13/5 1035/13/5 1034/13/5
f 1039/13/5 1034/13/5 1033/13/5
f 1040/13/5 1035/13/5 1039/13/5
f 1041/13/5 1038/13/5 1037/13/5
f 1042/10/5 1032/10/5 1038/10/5
f 1042/13/5 1038/13/5 1041/13/5
f 1043/13/5 1011/13/5 1032/13/5
f 1043/10/5 1032/10/5 1042/10/5
f 1044/10/5 1033/10/5 1011/10/5
f 1044/13/5 1011/13/5 1043/13/5
f 1045/13/5 1039/13/5 1033/13/5
f 1045/10/5 1033/10/5 1044/10/5
f 1046/10/5 1040/10/5 1039/10/5
f 1046/13/5 1039/13/5 1045/13/5
f 1047/10/5 1040/10/5 1046/10/5
f 1049/5/5 1048/5/5 1047/5/5
f 1050/5/5 1048/5/5 1049/5/5
f 1055/12/5 1052/12/5 1051/12/5
f 1056/12/5 1052/12/5 1055/12/5
f 1057/1/5 1054/1/5 1053/1/5
f 1058/1/5 1054/1/5 1057/1/5
f 1061/5/5 1060/5/5 1059/5/5
f 1062/5/5 1060/5/5 1061/5/5
f 1069/5/5 1064/5/5 1063/5/5
f 1070/5/5 1064/5/5 1069/5/5
f 1071/5/5 1066/5/5 1065/5/5
f 1072/5/5 1066/5/5 1071/5/5
f 1074/18/5 1068/18/5 1067/18/5
f 1075/18/5 1068/18/5 1074/18/5
f 1076/1/5 1070/1/5 1069/1/5
f 1077/1/5 1070/1/5 1076/1/5
f 1078/1/5 1073/1/5 1072/1/5
f 1079/1/5 1073/1/5 1078/1/5
f 1082/9/5 1081/9/5 1080/9/5
f 1083/9/5 1081/9/5 1082/9/5
f 1086/5/5 1083/5/5 1082/5/5
f 1087/5/5 1083/5/5 1086/5/5
f 1088/5/5 1085/5/5 1084/5/5
f 1089/5/5 1085/5/5 1088/5/5
f 1094/5/5 1091/5/5 1090/5/5
f 1095/5/5 1091/5/5 1094/5/5
f 1096/5/5 1093/5/5 1092/5/5
f 1097/5/5 1093/5/5 1096/5/5
f 1102/18/5 1099/18/5 1098/18/5
f 1103/18/5 1099/18/5 1102/18/5
f 1106/13/5 1101/13/5 1100/13/5
f 1107/13/5 1101/13/5 1106/13/5
f 1108/5/5 1105/5/5 1104/5/5
f 1109/5/5 1105/5/5 1108/5/5
f 1113/5/5 1107/5/5 1106/5/5
f 1114/5/5 1112/5/5 1111/5/5
f 1114/5/5 1110/5/5 1109/5/5
f 1114/5/5 1111/5/5 1110/5/5
f 1115/5/5 1112/5/5 1114/5/5
f 1116/5/5 1112/5/5 1115/5/5
f 1117/5/5 1107/5/5 1113/5/5
f 1118/5/5 1107/5/5 1117/5/5
f 1119/5/5 1116/5/5 1115/5/5
f 1120/5/5 1116/5/5 1119/5/5
f 1121/5/5 1118/5/5 1117/5/5
f 1122/5/5 1118/5/5 1121/5/5
f 1125/14/5 1124/14/5 1123/14/5
f 1126/14/5 1124/14/5 1125/14/5
f 1131/5/5 1128/5/5 1127/5/5
f 1132/5/5 1128/5/5 1131/5/5
f 1133/5/5 1130/5/5 1129/5/5
f 1134/5/5 1130/5/5 1133/5/5
f 1137/18/5 1136/18/5 1135/18/5
f 1138/18/5 1136/18/5 1137/18/5
f 1143/5/5 1140/5/5 1139/5/5
f 1144/5/5 1140/5/5 1143/5/5
f 1145/5/5 1142/5/5 1141/5/5
f 1146/5/5 1142/5/5 1145/5/5
f 1150/5/5 1147/5/5 1146/5/5
f 1151/5/5 1147/5/5 1150/5/5
f 1152/5/5 1149/5/5 1148/5/5
f 1153/5/5 1149/5/5 1152/5/5
f 1160/20/5 1155/20/5 1154/20/5
f 1160/2/5 1156/2/5 1155/2/5
f 1161/2/5 1156/2/5 1160/2/5
f 1162/5/5 1158/5/5 1157/5/5
f 1163/19/5 1159/19/5 1158/19/5
f 1163/5/5 1158/5/5 1162/5/5
f 1164/19/5 1159/19/5 1163/19/5
f 1165/19/5 1159/19/5 1164/19/5
f 1166/20/5 1160/20/5 1154/20/5
f 1167/20/5 1160/20/5 1166/20/5
f 1172/20/5 1169/20/5 1168/20/5
f 1173/20/5 1169/20/5 1172/20/5
f 1174/20/5 1171/20/5 1170/20/5
f 1175/20/5 1171/20/5 1174/20/5
f 1184/20/5 1177/20/5 1176/20/5
f 1185/20/5 1177/20/5 1184/20/5
f 1186/5/5 1179/5/5 1178/5/5
f 1187/5/5 1179/5/5 1186/5/5
f 1188/19/5 1181/19/5 1180/19/5
f 1189/19/5 1181/19/5 1188/19/5
f 1191/14/5 1183/14/5 1182/14/5
f 1192/14/5 1183/14/5 1191/14/5
f 1193/14/5 1191/14/5 1190/14/5
f 1193/14/5 1192/14/5 1191/14/5
f 1194/14/5 1192/14/5 1193/14/5
f 1199/20/5 1196/20/5 1195/20/5
f 1200/20/5 1196/20/5 1199/20/5
f 1205/19/5 1198/19/5 1197/19/5
f 1206/19/5 1198/19/5 1205/19/5
f 1207/20/5 1201/20/5 1200/20/5
f 1208/20/5 1201/20/5 1207/20/5
f 1209/20/5 1205/20/5 1204/20/5
f 1210/20/5 1205/20/5 1209/20/5
f 1211/20/5 1203/20/5 1202/20/5
f 1212/20/5 1203/20/5 1211/20/5
f 1216/18/5 1214/18/5 1213/18/5
f 1217/18/5 1214/18/5 1216/18/5
f 1218/18/5 1214/18/5 1217/18/5
f 1219/17/5 1215/17/5 1214/17/5
f 1219/18/5 1214/18/5 1218/18/5
f 1220/17/5 1215/17/5 1219/17/5
f 1221/17/5 1215/17/5 1220/17/5
f 1224/19/5 1218/19/5 1217/19/5
f 1225/19/5 1218/19/5 1224/19/5
f 1226/19/5 1220/19/5 1219/19/5
f 1227/19/5 1220/19/5 1226/19/5
f 1230/20/5 1223/20/5 1222/20/5
f 1231/20/5 1223/20/5 1230/20/5
f 1232/19/5 1229/19/5 1228/19/5
f 1233/19/5 1229/19/5 1232/19/5
f 1238/20/5 1235/20/5 1234/20/5
f 1239/20/5 1235/20/5 1238/20/5
f 1240/19/5 1237/19/5 1236/19/5
f 1241/19/5 1237/19/5 1240/19/5
f 1248/16/5 1243/16/5 1242/16/5
f 1249/16/5 1243/16/5 1248/16/5
f 1250/20/5 1245/20/5 1244/20/5
f 1251/20/5 1245/20/5 1250/20/5
f 1252/19/5 1247/19/5 1246/19/5
f 1253/19/5 1247/19/5 1252/19/5
f 1258/20/5 1255/20/5 1254/20/5
f 1259/20/5 1255/20/5 1258/20/5
f 1260/19/5 1257/19/5 1256/19/5
f 1261/19/5 1257/19/5 1260/19/5
f 1266/20/5 1263/20/5 1262/20/5
f 1267/20/5 1263/20/5 1266/20/5
f 1268/19/5 1265/19/5 1264/19/5
f 1269/19/5 1265/19/5 1268/19/5
f 1272/19/5 1271/19/5 1270/19/5
f 1273/19/5 1271/19/5 1272/19/5
f 1276/19/5 1275/19/5 1274/19/5
f 1277/19/5 1275/19/5 1276/19/5
f 1278/13/6 1279/13/6 1285/13/6
f 1279/10/6 1280/10/6 1286/10/6
f 1285/13/6 1279/13/6 1286/13/6
f 1280/13/6 1281/13/6 1287/13/6
f 1286/10/6 1280/10/6 1287/10/6
f 1281/10/6 1282/10/6 1288/10/6
f 1287/13/6 1281/13/6 1288/13/6
f 1282/13/6 1283/13/6 1289/13/6
f 1288/10/6 1282/10/6 1289/10/6
f 1283/10/6 1284/10/6 1290/10/6
f 1289/13/6 1283/13/6 1290/13/6
f 1290/10/6 1284/10/6 1291/10/6
f 1285/10/6 1286/10/6 1294/10/6
f 1294/10/6 1286/10/6 1295/10/6
f 1290/13/6 1291/13/6 1296/13/6
f 1296/13/6 1291/13/6 1297/13/6
f 1292/1/6 1293/1/6 1299/1/6
f 1299/1/6 1293/1/6 1300/1/6
f 1294/13/6 1295/13/6 1301/13/6
f 1301/13/6 1295/13/6 1302/13/6
f 1296/10/6 1297/10/6 1303/10/6
f 1297/1/6 1298/1/6 1304/1/6
f 1303/10/6 1297/10/6 1304/10/6
f 1304/1/6 1298/1/6 1305/1/6
f 1301/10/6 1302/10/6 1306/10/6
f 1306/10/6 1302/10/6 1307/10/6
f 1303/13/6 1304/13/6 1311/13/6
f 1311/13/6 1304/13/6 1312/13/6
f 1306/13/6 1307/13/6 1313/13/6
f 1307/10/6 1308/10/6 1314/10/6
f 1313/13/6 1307/13/6 1314/13/6
f 1308/13/6 1309/13/6 1315/13/6
f 1314/10/6 1308/10/6 1315/10/6
f 1309/10/6 1310/10/6 1316/10/6
f 1315/13/6 1309/13/6 1316/13/6
f 1310/13/6 1311/13/6 1317/13/6
f 1316/10/6 1310/10/6 1317/10/6
f 1311/10/6 1312/10/6 1318/10/6
f 1317/13/6 1311/13/6 1318/13/6
f 1318/10/6 1312/10/6 1319/10/6
f 1319/5/6 1320/5/6 1321/5/6
f 1321/5/6 1320/5/6 1322/5/6
f 1323/12/6 1324/12/6 1327/12/6
f 1327/12/6 1324/12/6 1328/12/6
f 1325/1/6 1326/1/6 1329/1/6
f 1329/1/6 1326/1/6 1330/1/6
f 1331/5/6 1332/5/6 1333/5/6
f 1333/5/6 1332/5/6 1334/5/6
f 1335/18/6 1336/18/6 1339/18/6
f 1339/18/6 1336/18/6 1340/18/6
f 1337/1/6 1338/1/6 1341/1/6
f 1341/1/6 1338/1/6 1342/1/6
f 1343/5/6 1344/5/6 1347/5/6
f 1347/5/6 1344/5/6 1348/5/6
f 1345/5/6 1346/5/6 1349/5/6
f 1349/5/6 1346/5/6 1350/5/6
f 1351/5/6 1352/5/6 1356/5/6
f 1356/5/6 1352/5/6 1357/5/6
f 1353/5/6 1354/5/6 1358/5/6
f 1358/5/6 1354/5/6 1359/5/6
f 1355/5/6 1356/5/6 1363/5/6
f 1363/5/6 1356/5/6 1364/5/6
f 1359/5/6 1360/5/6 1365/5/6
f 1365/5/6 1360/5/6 1366/5/6
f 1361/18/6 1362/18/6 1367/18/6
f 1367/18/6 1362/18/6 1368/18/6
f 1369/5/6 1370/5/6 1373/5/6
f 1373/5/6 1370/5/6 1374/5/6
f 1371/5/6 1372/5/6 1375/5/6
f 1375/5/6 1372/5/6 1376/5/6
f 1377/14/6 1378/14/6 1379/14/6
f 1379/14/6 1378/14/6 1380/14/6
f 1381/20/6 1382/20/6 1385/20/6
f 1385/20/6 1382/20/6 1386/20/6
f 1383/19/6 1384/19/6 1387/19/6
f 1387/19/6 1384/19/6 1388/19/6
f 1389/20/6 1390/20/6 1393/20/6
f 1393/20/6 1390/20/6 1394/20/6
f 1391/19/6 1392/19/6 1395/19/6
f 1395/19/6 1392/19/6 1396/19/6
f 1397/14/6 1398/14/6 1400/14/6
f 1400/14/6 1398/14/6 1401/14/6
f 1399/14/6 1400/14/6 1406/14/6
f 1400/14/6 1401/14/6 1406/14/6
f 1406/14/6 1401/14/6 1407/14/6
f 1402/20/6 1403/20/6 1408/20/6
f 1408/20/6 1403/20/6 1409/20/6
f 1404/19/6 1405/19/6 1410/19/6
f 1410/19/6 1405/19/6 1411/19/6
f 1412/20/6 1413/20/6 1420/20/6
f 1420/20/6 1413/20/6 1421/20/6
f 1414/19/6 1415/19/6 1422/19/6
f 1422/19/6 1415/19/6 1423/19/6
f 1416/16/6 1417/16/6 1424/16/6
f 1424/16/6 1417/16/6 1425/16/6
f 1418/6/6 1419/6/6 1426/6/6
f 1426/6/6 1419/6/6 1427/6/6
f 1428/20/6 1429/20/6 1432/20/6
f 1432/20/6 1429/20/6 1433/20/6
f 1430/19/6 1431/19/6 1434/19/6
f 1434/19/6 1431/19/6 1435/19/6
f 1436/20/6 1437/20/6 1438/20/6
f 1438/20/6 1437/20/6 1439/20/6
f 1440/18/6 1441/18/6 1445/18/6
f 1445/18/6 1441/18/6 1446/18/6
f 1441/17/6 1442/17/6 1447/17/6
f 1446/18/6 1441/18/6 1447/18/6
f 1442/15/6 1443/15/6 1448/15/6
f 1447/17/6 1442/17/6 1448/17/6
f 1448/15/6 1443/15/6 1449/15/6
f 1444/20/6 1445/20/6 1451/20/6
f 1451/20/6 1445/20/6 1452/20/6
f 1449/19/6 1450/19/6 1453/19/6
f 1453/19/6 1450/19/6 1454/19/6
f 1455/16/6 1456/16/6 1457/16/6
f 1457/16/6 1456/16/6 1458/16/6
f 1459/20/6 1460/20/6 1463/20/6
f 1463/20/6 1460/20/6 1464/20/6
f 1461/19/6 1462/19/6 1465/19/6
f 1465/19/6 1462/19/6 1466/19/6
f 1464/20/6 1465/20/6 1467/20/6
f 1467/20/6 1465/20/6 1468/20/6
f 1469/20/6 1470/20/6 1473/20/6
f 1470/19/6 1471/19/6 1474/19/6
f 1473/20/6 1470/20/6 1474/20/6
f 1474/19/6 1471/19/6 1475/19/6
f 1475/19/6 1471/19/6 1476/19/6
f 1476/19/6 1471/19/6 1477/19/6
f 1472/20/6 1473/20/6 1479/20/6
f 1473/20/6 1474/20/6 1479/20/6
f 1479/20/6 1474/20/6 1480/20/6
f 1477/19/6 1478/19/6 1481/19/6
f 1476/19/6 1477/19/6 1481/19/6
f 1481/19/6 1478/19/6 1482/19/6
f 1480/20/6 1474/20/6 1484/20/6
f 1476/19/6 1481/19/6 1485/19/6
f 1485/19/6 1481/19/6 1486/19/6
f 1483/20/6 1484/20/6 1488/20/6
f 1484/20/6 1474/20/6 1489/20/6
f 1488/20/6 1484/20/6 1489/20/6
f 1489/20/6 1474/20/6 1490/20/6
f 1485/20/6 1486/20/6 1492/20/6
f 1486/19/6 1487/19/6 1493/19/6
f 1492/20/6 1486/20/6 1493/20/6
f 1493/19/6 1487/19/6 1494/19/6
f 1491/20/6 1492/20/6 1495/20/6
f 1490/20/6 1491/20/6 1495/20/6
f 1492/20/6 1493/20/6 1495/20/6
f 1489/20/6 1490/20/6 1495/20/6
f 1495/20/6 1493/20/6 1496/20/6
f 1500/20/6 1501/20/6 1504/20/6
f 1504/20/6 1501/20/6 1505/20/6
f 1502/19/6 1503/19/6 1506/19/6
f 1506/19/6 1503/19/6 1507/19/6
f 1497/20/6 1498/20/6 1508/20/6
f 1498/19/6 1499/19/6 1509/19/6
f 1508/20/6 1498/20/6 1509/20/6
f 1509/19/6 1499/19/6 1510/19/6
f 1511/19/6 1512/19/6 1515/19/6
f 1515/19/6 1512/19/6 1516/19/6
f 1513/18/6 1514/18/6 1517/18/6
f 1517/18/6 1514/18/6 1518/18/6
